<svg xmlns="http://www.w3.org/2000/svg" xmlns:xlink="http://www.w3.org/1999/xlink" width="307.283" height="258.232">
  <defs>
    <filter id="d" width="1.187" height="1.169" x="-.094" y="-.084" color-interpolation-filters="sRGB">
      <feGaussianBlur stdDeviation="4.259"/>
    </filter>
    <linearGradient id="c" x1="221.071" x2="234.643" y1="260" y2="128.571" gradientTransform="rotate(-180 206.879 144.753)" gradientUnits="userSpaceOnUse" xlink:href="#a"/>
    <linearGradient id="a">
      <stop offset="0" stop-color="#f0f24d"/>
      <stop offset="1" stop-color="#c6e911"/>
    </linearGradient>
    <filter id="b" width="1.229" height="1.285" x="-.115" y="-.143" color-interpolation-filters="sRGB">
      <feGaussianBlur stdDeviation="11.947"/>
    </filter>
  </defs>
  <path fill-opacity=".288" fill-rule="evenodd" d="M277.787 34.105c-19.941-8.896-225.6-5.38-248.442 0-10.673 2.514 108.924 194.853 125.387 195.454 14.214.518 134.953-190.147 123.055-195.454z" filter="url(#b)"/>
  <path fill="url(#c)" fill-rule="evenodd" d="M277.787 16.105c-19.941-8.896-225.6-5.38-248.442 0-10.673 2.514 108.924 194.853 125.387 195.454 14.214.518 134.953-190.147 123.055-195.454z"/>
  <path fill="#6f8209" d="M232.147 266.626c-.538-1.005-.978-5.25-.978-9.432v-7.605l-9.683-7.338c-4.798-6.183-14.615-14.243-15.593-32.155.488-20.03 1.736-23.167 7.564-34.733 3.761-7.465 14.635-18.068 22.814-22.02 30.495-14.732 63.303-1.357 75.41 31.71 1.6 4.37 2.991 9.39 3.344 24.837-1.305 16.42-5.195 24.883-13.94 30.964l-10.865 8.23-.473 8.504c-.26 4.677-.816 9.035-1.237 9.685-1.117 1.726-7.731 1.48-9.245-.344-.696-.838-1.492-3.496-1.769-5.905-.408-3.547-.885-4.435-2.506-4.666-2.19-.313-3.158 1.804-3.181 6.946-.015 3.16-1.472 5.158-3.745 5.135-2.987-.03-4.242-1.826-4.74-6.782-.46-4.584-.707-5.014-2.866-5.014-2.16 0-2.405.43-2.866 5.014-.498 4.956-1.753 6.753-4.74 6.782-2.273.023-3.73-1.975-3.745-5.135-.023-5.142-.992-7.259-3.18-6.946-1.622.231-2.1 1.119-2.507 4.666-.662 5.75-2.169 7.43-6.665 7.43-2.622 0-3.902-.508-4.608-1.828zm34.512-28.504c.355-.573-.32-3.103-1.5-5.621-3.381-7.219-6.02-7.219-9.402 0-1.18 2.518-1.855 5.048-1.5 5.621.354.573 3.144 1.042 6.201 1.042 3.057 0 5.847-.469 6.201-1.042zm-24.954-10.32c4.7-1.305 9.864-7.177 10.708-12.175.527-3.117.21-4.815-1.552-8.328-2.905-5.79-6.145-8.032-12.33-8.529-4.114-.33-5.582-.006-8.285 1.831-7.038 4.784-9.403 12.234-6.096 19.202 1.916 4.038 4.147 6.008 8.61 7.6 4.424 1.577 4.666 1.588 8.945.4zm49.116-1.46c6.741-3.485 9.549-14.07 5.365-20.224-3.79-5.577-7.992-7.814-13.8-7.348-6.186.497-9.426 2.738-12.331 8.53-2.94 5.862-2.187 10.808 2.426 15.914 4.992 5.525 11.545 6.642 18.34 3.129z" filter="url(#d)" opacity=".535" transform="matrix(1.08476 0 0 1.08344 -129.236 -129.688)"/>
  <path fill="#fff" stroke="#a2be10" stroke-width="3" d="M124.986 146.287c-.537-1.005-.978-5.25-.978-9.432v-7.605l-9.682-7.338c-4.798-6.183-14.616-14.244-15.593-32.155.488-20.03 1.735-23.167 7.563-34.733 3.762-7.465 14.636-18.069 22.815-22.02 30.494-14.732 63.303-1.357 75.41 31.71 1.6 4.37 2.99 9.39 3.344 24.836-1.305 16.422-5.195 24.884-13.94 30.965l-10.866 8.23-.472 8.504c-.26 4.677-.816 9.035-1.237 9.684-1.117 1.727-7.731 1.48-9.245-.343-.696-.838-1.492-3.496-1.77-5.905-.407-3.547-.884-4.435-2.506-4.667-2.189-.312-3.158 1.805-3.18 6.947-.015 3.16-1.472 5.157-3.746 5.135-2.986-.03-4.242-1.826-4.74-6.782-.46-4.584-.706-5.014-2.865-5.014-2.16 0-2.406.43-2.866 5.014-.498 4.956-1.754 6.752-4.74 6.782-2.274.022-3.73-1.975-3.745-5.135-.023-5.142-.992-7.259-3.181-6.947-1.622.232-2.098 1.12-2.507 4.667-.661 5.749-2.168 7.43-6.664 7.43-2.622 0-3.902-.508-4.609-1.828zm34.513-28.504c.354-.573-.321-3.103-1.5-5.621-3.382-7.22-6.021-7.22-9.402 0-1.18 2.518-1.855 5.048-1.5 5.621.353.573 3.144 1.042 6.2 1.042 3.057 0 5.848-.469 6.202-1.042zm-24.954-10.32c4.699-1.305 9.863-7.177 10.708-12.175.526-3.117.21-4.815-1.552-8.328-2.905-5.791-6.146-8.032-12.331-8.529-4.114-.33-5.582-.006-8.284 1.831-7.038 4.784-9.403 12.234-6.097 19.202 1.917 4.038 4.148 6.008 8.61 7.6 4.424 1.577 4.666 1.588 8.946.4zm49.116-1.46c6.74-3.485 9.548-14.07 5.365-20.224-3.791-5.577-7.992-7.814-13.8-7.348-6.186.497-9.426 2.738-12.332 8.53-2.94 5.861-2.186 10.808 2.427 15.914 4.991 5.524 11.545 6.642 18.34 3.128z"/>
</svg>
