<?xml version="1.0" encoding="UTF-8" standalone="no"?>
<svg
   xmlns:dc="http://purl.org/dc/elements/1.1/"
   xmlns:cc="http://creativecommons.org/ns#"
   xmlns:rdf="http://www.w3.org/1999/02/22-rdf-syntax-ns#"
   xmlns:svg="http://www.w3.org/2000/svg"
   xmlns="http://www.w3.org/2000/svg"
   xmlns:xlink="http://www.w3.org/1999/xlink"
   xmlns:sodipodi="http://sodipodi.sourceforge.net/DTD/sodipodi-0.dtd"
   xmlns:inkscape="http://www.inkscape.org/namespaces/inkscape"
   height="258.23218"
   width="307.28333"
   version="1.1"
   id="svg81625"
   inkscape:version="0.92.2 (5c3e80d, 2017-08-06)"
   sodipodi:docname="1-mark.svg">
  <title
     id="title20269">Desktop template</title>
  <defs
     id="defs81618">
    <filter
       inkscape:collect="always"
       style="color-interpolation-filters:sRGB"
       id="filter81388"
       x="-0.093653873"
       width="1.1873078"
       y="-0.084424466"
       height="1.1688489">
      <feGaussianBlur
         inkscape:collect="always"
         stdDeviation="4.2586064"
         id="feGaussianBlur81390" />
    </filter>
    <linearGradient
       inkscape:collect="always"
       xlink:href="#linearGradient163370"
       id="linearGradient82418"
       gradientUnits="userSpaceOnUse"
       gradientTransform="rotate(-180,206.87901,144.75262)"
       x1="221.07143"
       y1="260"
       x2="234.64285"
       y2="128.57143" />
    <linearGradient
       inkscape:collect="always"
       id="linearGradient163370">
      <stop
         style="stop-color:#f0f24d;stop-opacity:1"
         offset="0"
         id="stop163366" />
      <stop
         style="stop-color:#c6e911;stop-opacity:1"
         offset="1"
         id="stop163368" />
    </linearGradient>
    <filter
       inkscape:collect="always"
       style="color-interpolation-filters:sRGB"
       id="filter246257"
       x="-0.11471831"
       width="1.2294366"
       y="-0.14272937"
       height="1.2854587">
      <feGaussianBlur
         inkscape:collect="always"
         stdDeviation="11.946876"
         id="feGaussianBlur246259" />
    </filter>
  </defs>
  <sodipodi:namedview
     id="base"
     pagecolor="#ffffff"
     bordercolor="#666666"
     borderopacity="1.0"
     inkscape:pageopacity="1"
     inkscape:pageshadow="2"
     inkscape:zoom="0.7"
     inkscape:cx="-72.143387"
     inkscape:cy="327.50169"
     inkscape:document-units="px"
     inkscape:current-layer="svg81625"
     showgrid="false"
     units="px"
     inkscape:window-width="2560"
     inkscape:window-height="1406"
     inkscape:window-x="1920"
     inkscape:window-y="0"
     inkscape:window-maximized="1"
     fit-margin-top="0"
     fit-margin-left="0"
     fit-margin-right="0"
     fit-margin-bottom="0">
    <inkscape:grid
       type="xygrid"
       id="grid20267"
       spacingx="8"
       spacingy="8.0000001"
       empcolor="#ff0000"
       empopacity="0.25098039"
       empspacing="2"
       originx="230.5619"
       originy="-27.07126" />
  </sodipodi:namedview>
  <metadata
     id="metadata81622">
    <rdf:RDF>
      <cc:Work
         rdf:about="">
        <dc:format>image/svg+xml</dc:format>
        <dc:type
           rdf:resource="http://purl.org/dc/dcmitype/StillImage" />
        <dc:title>Desktop template</dc:title>
        <dc:creator>
          <cc:Agent>
            <dc:title>Xaviju</dc:title>
          </cc:Agent>
        </dc:creator>
        <dc:subject>
          <rdf:Bag>
            <rdf:li>web desktop 1920x1080</rdf:li>
          </rdf:Bag>
        </dc:subject>
        <cc:license
           rdf:resource="http://creativecommons.org/licenses/by/4.0/" />
      </cc:Work>
      <cc:License
         rdf:about="http://creativecommons.org/licenses/by/4.0/">
        <cc:permits
           rdf:resource="http://creativecommons.org/ns#Reproduction" />
        <cc:permits
           rdf:resource="http://creativecommons.org/ns#Distribution" />
        <cc:requires
           rdf:resource="http://creativecommons.org/ns#Notice" />
        <cc:requires
           rdf:resource="http://creativecommons.org/ns#Attribution" />
        <cc:permits
           rdf:resource="http://creativecommons.org/ns#DerivativeWorks" />
      </cc:License>
    </rdf:RDF>
  </metadata>
  <g
     id="desktop"
     transform="translate(230.5619,-794.69651)" />
  <path
     style="fill:#000000;fill-opacity:0.28772637;fill-rule:evenodd;stroke:none;stroke-width:5;stroke-linecap:butt;stroke-linejoin:miter;stroke-miterlimit:4;stroke-dasharray:none;stroke-opacity:1;filter:url(#filter246257)"
     d="m 277.78743,34.104757 c -19.9415,-8.89559 -225.5996,-5.38015 -248.4421,0 -10.673,2.51383 108.9239,194.853383 125.387,195.453883 14.2138,0.51846 134.9525,-190.146603 123.0551,-195.453883 z"
     id="path246247"
     inkscape:connector-curvature="0"
     sodipodi:nodetypes="ssss"
     inkscape:export-xdpi="96"
     inkscape:export-ydpi="96" />
  <path
     sodipodi:nodetypes="ssss"
     inkscape:connector-curvature="0"
     id="path82408"
     d="m 277.78743,16.104757 c -19.9415,-8.8955904 -225.5996,-5.38015 -248.4421,0 -10.673,2.51383 108.9239,194.853383 125.387,195.453883 14.2138,0.51846 134.9525,-190.146603 123.0551,-195.453883 z"
     style="fill:url(#linearGradient82418);fill-opacity:1;fill-rule:evenodd;stroke:none;stroke-width:5;stroke-linecap:butt;stroke-linejoin:miter;stroke-miterlimit:4;stroke-dasharray:none;stroke-opacity:1"
     inkscape:export-xdpi="96"
     inkscape:export-ydpi="96" />
  <path
     transform="matrix(1.0847582,0,0,1.0834404,-129.23637,-129.68821)"
     inkscape:connector-curvature="0"
     id="path82412"
     d="m 232.14679,266.62602 c -0.53793,-1.00513 -0.97806,-5.2496 -0.97806,-9.43215 v -7.60462 l -9.68288,-7.33832 c -4.79776,-6.18255 -14.61501,-14.24334 -15.5928,-32.15525 0.48808,-20.02897 1.73568,-23.16643 7.56356,-34.73246 3.76139,-7.46486 14.63556,-18.06863 22.81486,-22.02006 30.49425,-14.73181 63.30248,-1.35724 75.40955,31.70922 1.60033,4.3708 2.99115,9.39156 3.34425,24.83714 -1.30526,16.42128 -5.19512,24.88341 -13.94023,30.96435 l -10.86537,8.23096 -0.47241,8.50333 c -0.25982,4.67684 -0.81638,9.0348 -1.23678,9.68436 -1.11713,1.72607 -7.73155,1.48037 -9.24517,-0.34342 -0.69584,-0.83844 -1.49194,-3.49573 -1.76911,-5.9051 -0.40806,-3.54716 -0.88498,-4.43503 -2.50662,-4.66643 -2.18877,-0.31234 -3.15788,1.80409 -3.18091,6.94672 -0.0142,3.15939 -1.47122,5.15724 -3.74491,5.13478 -2.98643,-0.0295 -4.24219,-1.82616 -4.74002,-6.78164 -0.46052,-4.58415 -0.70624,-5.01408 -2.86574,-5.01408 -2.15951,0 -2.40523,0.42993 -2.86575,5.01408 -0.49782,4.95548 -1.75358,6.75213 -4.74001,6.78164 -2.2737,0.0225 -3.73077,-1.97539 -3.74493,-5.13478 -0.0231,-5.14263 -0.99213,-7.25906 -3.1809,-6.94672 -1.62164,0.2314 -2.09855,1.11927 -2.50662,4.66643 -0.66136,5.74913 -2.16876,7.42954 -6.66461,7.42954 -2.62223,0 -3.90193,-0.50748 -4.60839,-1.82752 z m 34.51266,-28.5039 c 0.35425,-0.57318 -0.32104,-3.10272 -1.50064,-5.62121 -3.38116,-7.21892 -6.02047,-7.21892 -9.40164,0 -1.17959,2.51849 -1.85487,5.04803 -1.50063,5.62121 0.35425,0.57318 3.14491,1.04215 6.20146,1.04215 3.05655,0 5.8472,-0.46897 6.20145,-1.04215 z M 241.70488,227.8025 c 4.69949,-1.30532 9.86367,-7.17708 10.70811,-12.1753 0.52668,-3.11733 0.21038,-4.81474 -1.55184,-8.32774 -2.90508,-5.79135 -6.14539,-8.03265 -12.33092,-8.5292 -4.11352,-0.33022 -5.58146,-0.006 -8.28382,1.83112 -7.038,4.78391 -9.40344,12.2337 -6.0969,19.20171 1.91634,4.03836 4.14786,6.00791 8.6101,7.59936 4.42418,1.57786 4.66592,1.58867 8.94527,0.40005 z m 49.11627,-1.45997 c 6.74089,-3.48586 9.54869,-14.06976 5.36529,-20.2243 -3.79113,-5.57741 -7.99227,-7.81426 -13.80068,-7.34797 -6.18552,0.49655 -9.42584,2.73785 -12.33092,8.5292 -2.94058,5.86212 -2.18636,10.8086 2.42661,15.91461 4.99105,5.52449 11.54447,6.6424 18.3397,3.12846 z"
     style="opacity:0.53500001;fill:#6f8209;fill-opacity:1;stroke-width:0.92242485;filter:url(#filter81388)"
     sodipodi:nodetypes="cscccssccccsccccccsssccccscsccssscccscscccssssc"
     inkscape:export-xdpi="96"
     inkscape:export-ydpi="96" />
  <path
     sodipodi:nodetypes="cscccssccccsccccccsssccccscsccssscccscscccssssc"
     style="fill:#ffffff;stroke:#a2be10;stroke-width:3;stroke-miterlimit:4;stroke-dasharray:none;stroke-opacity:1"
     d="m 124.98643,146.28693 c -0.5379,-1.00513 -0.9781,-5.2496 -0.9781,-9.43215 v -7.60462 l -9.6828,-7.33832 c -4.7978,-6.18255 -14.6151,-14.24334 -15.5928,-32.155251 0.488,-20.028972 1.7356,-23.166432 7.5635,-34.732462 3.7614,-7.46486 14.6356,-18.06863 22.8149,-22.02006 30.4942,-14.73181 63.3024,-1.35724 75.4095,31.70922 1.6003,4.3708 2.9912,9.39156 3.3443,24.837142 -1.3053,16.421281 -5.1952,24.883411 -13.9403,30.964351 l -10.8653,8.23096 -0.4724,8.50333 c -0.2599,4.67684 -0.8164,9.0348 -1.2368,9.68436 -1.1171,1.72607 -7.7316,1.48037 -9.2452,-0.34342 -0.6958,-0.83844 -1.4919,-3.49573 -1.7691,-5.9051 -0.4081,-3.54716 -0.885,-4.43503 -2.5066,-4.66643 -2.1888,-0.31234 -3.1579,1.80409 -3.1809,6.94672 -0.014,3.15939 -1.4712,5.15724 -3.7449,5.13478 -2.9865,-0.0295 -4.2422,-1.82616 -4.7401,-6.78164 -0.4605,-4.58415 -0.7062,-5.01408 -2.8657,-5.01408 -2.1595,0 -2.4052,0.42993 -2.8657,5.01408 -0.4979,4.95548 -1.7536,6.75213 -4.7401,6.78164 -2.2737,0.0225 -3.7307,-1.97539 -3.7449,-5.13478 -0.023,-5.14263 -0.9921,-7.25906 -3.1809,-6.94672 -1.6216,0.2314 -2.0985,1.11927 -2.5066,4.66643 -0.6614,5.74913 -2.1688,7.42954 -6.6646,7.42954 -2.6222,0 -3.9019,-0.50748 -4.6084,-1.82752 z m 34.5127,-28.5039 c 0.3542,-0.57318 -0.3211,-3.10272 -1.5007,-5.62121 -3.3812,-7.21892 -6.0205,-7.21892 -9.4016,0 -1.1796,2.51849 -1.8549,5.04803 -1.5007,5.62121 0.3543,0.57318 3.1449,1.04215 6.2015,1.04215 3.0565,0 5.8472,-0.46897 6.2015,-1.04215 z m -24.9546,-10.31962 c 4.6995,-1.30532 9.8636,-7.17708 10.7081,-12.175301 0.5267,-3.11733 0.2104,-4.81474 -1.5518,-8.32774 -2.9051,-5.791352 -6.1454,-8.032652 -12.331,-8.529202 -4.1135,-0.33022 -5.5814,-0.006 -8.2838,1.83112 -7.038,4.783912 -9.4034,12.233702 -6.0969,19.201712 1.9164,4.038361 4.1479,6.007911 8.6101,7.599361 4.4242,1.57786 4.6659,1.58867 8.9453,0.40005 z m 49.1162,-1.45997 c 6.7409,-3.48586 9.5487,-14.069761 5.3653,-20.224301 -3.7911,-5.577412 -7.9922,-7.814262 -13.8006,-7.347972 -6.1856,0.49655 -9.4259,2.73785 -12.331,8.529202 -2.9405,5.86212 -2.1863,10.8086 2.4267,15.914611 4.991,5.52449 11.5444,6.6424 18.3396,3.12846 z"
     id="path82414"
     inkscape:connector-curvature="0"
     inkscape:export-xdpi="96"
     inkscape:export-ydpi="96" />
</svg>
