<?xml version="1.0" encoding="UTF-8" standalone="no"?>
<svg
   xmlns:dc="http://purl.org/dc/elements/1.1/"
   xmlns:cc="http://creativecommons.org/ns#"
   xmlns:rdf="http://www.w3.org/1999/02/22-rdf-syntax-ns#"
   xmlns:svg="http://www.w3.org/2000/svg"
   xmlns="http://www.w3.org/2000/svg"
   xmlns:xlink="http://www.w3.org/1999/xlink"
   xmlns:sodipodi="http://sodipodi.sourceforge.net/DTD/sodipodi-0.dtd"
   xmlns:inkscape="http://www.inkscape.org/namespaces/inkscape"
   height="54.474731mm"
   width="67.457008mm"
   version="1.1"
   id="svg82551"
   inkscape:version="0.92.2 (5c3e80d, 2017-08-06)"
   sodipodi:docname="3-mark.svg"
   inkscape:export-filename="/home/elhombretecla/Dropbox/proyectos/PUFOMAP/2-mark.png"
   inkscape:export-xdpi="96"
   inkscape:export-ydpi="96">
  <title
     id="title20269">Desktop template</title>
  <defs
     id="defs82544">
    <linearGradient
       inkscape:collect="always"
       xlink:href="#linearGradient81747"
       id="linearGradient81741"
       gradientUnits="userSpaceOnUse"
       x1="1735.4785"
       y1="260.04883"
       x2="1738.5516"
       y2="186.47852"
       gradientTransform="translate(-1612.6402,-75.444059)" />
    <linearGradient
       inkscape:collect="always"
       id="linearGradient81747">
      <stop
         style="stop-color:#4b0c0c;stop-opacity:0.50301808"
         offset="0"
         id="stop81743" />
      <stop
         style="stop-color:#540d0d;stop-opacity:0"
         offset="1"
         id="stop81745" />
    </linearGradient>
    <filter
       inkscape:collect="always"
       style="color-interpolation-filters:sRGB"
       id="filter81388"
       x="-0.093653873"
       width="1.1873078"
       y="-0.084424466"
       height="1.1688489">
      <feGaussianBlur
         inkscape:collect="always"
         stdDeviation="4.2586064"
         id="feGaussianBlur81390" />
    </filter>
    <linearGradient
       inkscape:collect="always"
       xlink:href="#linearGradient81735"
       id="linearGradient81737-0"
       x1="1756.1147"
       y1="171.42064"
       x2="1753.5516"
       y2="77.549942"
       gradientUnits="userSpaceOnUse"
       gradientTransform="translate(-1612.6402,-75.444059)" />
    <linearGradient
       id="linearGradient81735"
       inkscape:collect="always">
      <stop
         id="stop81731"
         offset="0"
         style="stop-color:#f8d5d5;stop-opacity:0" />
      <stop
         id="stop81733"
         offset="1"
         style="stop-color:#ffffff;stop-opacity:0.96780682" />
    </linearGradient>
    <linearGradient
       inkscape:collect="always"
       xlink:href="#linearGradient81535"
       id="linearGradient81723"
       gradientUnits="userSpaceOnUse"
       gradientTransform="rotate(-180,193.79791,140.66641)"
       x1="256.78571"
       y1="259.28571"
       x2="256.78571"
       y2="116.42857" />
    <linearGradient
       id="linearGradient81535"
       inkscape:collect="always">
      <stop
         id="stop81531"
         offset="0"
         style="stop-color:#ec905f;stop-opacity:1" />
      <stop
         id="stop81533"
         offset="1"
         style="stop-color:#ec2604;stop-opacity:1" />
    </linearGradient>
  </defs>
  <sodipodi:namedview
     id="base"
     pagecolor="#ffffff"
     bordercolor="#666666"
     borderopacity="1.0"
     inkscape:pageopacity="1"
     inkscape:pageshadow="2"
     inkscape:zoom="0.7"
     inkscape:cx="379.72815"
     inkscape:cy="424.83465"
     inkscape:document-units="px"
     inkscape:current-layer="svg82551"
     showgrid="false"
     units="mm"
     inkscape:window-width="2560"
     inkscape:window-height="1406"
     inkscape:window-x="1920"
     inkscape:window-y="0"
     inkscape:window-maximized="1"
     fit-margin-top="0"
     fit-margin-left="0"
     fit-margin-right="0"
     fit-margin-bottom="0">
    <inkscape:grid
       type="xygrid"
       id="grid20267"
       spacingx="8"
       spacingy="8.0000001"
       empcolor="#ff0000"
       empopacity="0.25098039"
       empspacing="2"
       originx="682.43342"
       originy="70.261684" />
  </sodipodi:namedview>
  <metadata
     id="metadata82548">
    <rdf:RDF>
      <cc:Work
         rdf:about="">
        <dc:format>image/svg+xml</dc:format>
        <dc:type
           rdf:resource="http://purl.org/dc/dcmitype/StillImage" />
        <dc:title>Desktop template</dc:title>
        <dc:creator>
          <cc:Agent>
            <dc:title>Xaviju</dc:title>
          </cc:Agent>
        </dc:creator>
        <dc:subject>
          <rdf:Bag>
            <rdf:li>web desktop 1920x1080</rdf:li>
          </rdf:Bag>
        </dc:subject>
        <cc:license
           rdf:resource="http://creativecommons.org/licenses/by/4.0/" />
      </cc:Work>
      <cc:License
         rdf:about="http://creativecommons.org/licenses/by/4.0/">
        <cc:permits
           rdf:resource="http://creativecommons.org/ns#Reproduction" />
        <cc:permits
           rdf:resource="http://creativecommons.org/ns#Distribution" />
        <cc:requires
           rdf:resource="http://creativecommons.org/ns#Notice" />
        <cc:requires
           rdf:resource="http://creativecommons.org/ns#Attribution" />
        <cc:permits
           rdf:resource="http://creativecommons.org/ns#DerivativeWorks" />
      </cc:License>
    </rdf:RDF>
  </metadata>
  <g
     id="desktop"
     transform="translate(682.43342,-944.37295)" />
  <path
     sodipodi:nodetypes="ssss"
     inkscape:connector-curvature="0"
     id="path81713"
     d="m 251.62523,7.932321 c -19.9415,-8.89558999 -225.599601,-5.38015 -248.4421024,0 -10.673,2.51383 108.9239024,194.853379 125.3870024,195.453879 14.2138,0.51846 134.9525,-190.146599 123.0551,-195.453879 z"
     style="fill:url(#linearGradient81723);fill-opacity:1;fill-rule:evenodd;stroke:#8d1329;stroke-width:5;stroke-linecap:butt;stroke-linejoin:miter;stroke-miterlimit:4;stroke-dasharray:none;stroke-opacity:1" />
  <path
     style="opacity:0.71100003;fill:url(#linearGradient81737-0);fill-opacity:1;fill-rule:evenodd;stroke:none;stroke-width:5;stroke-linecap:butt;stroke-linejoin:miter;stroke-miterlimit:4;stroke-dasharray:none;stroke-opacity:1"
     d="m 149.25823,4.956331 c -61.776501,-0.0263 -131.155301,2.06228 -143.7656024,4.6582 -1.3501,0.27792 -0.5634,3.27866 1.8438,8.26563 9.9899014,19.23874 22.2403014,40.32488 31.5064004,56.56473 23.977301,39.383399 49.009201,79.263479 77.897902,115.271209 3.6786,3.88373 7.0487,8.96985 12.0468,11.14062 11.225,-8.24502 18.5375,-20.82128 27.043,-31.60742 30.5988,-43.48359 59.8099,-88.331209 84.4152,-135.522039 1.9619,-4.24327 11.9629,-22.73144 9.0731,-24.11273 -8.5623,-3.33832 -52.0121,-4.63772 -100.0606,-4.6582 z m 0.2246,8.57813 c 37.3296,0.0187 71.7643,0.81555 89.2637,2.73828 -17.8259,38.17009 -40.3494,73.95732 -62.7832,109.544919 -13.4625,20.01282 -25.9926,41.03127 -42.7988,58.47851 -2.6635,3.34024 -7.4977,3.59182 -10.3262,0.3086 C 106.77323,168.85705 95.136929,149.2602 82.504329,130.79813 58.842729,93.808511 35.472728,56.430901 16.133229,16.962191 c 24.706299,-1.99701 81.674,-3.45366 133.349601,-3.42773 z"
     id="path81715"
     inkscape:connector-curvature="0"
     sodipodi:nodetypes="sccccccccssccccccs" />
  <path
     transform="matrix(1.0847582,0,0,1.0834404,-155.39857,-137.86065)"
     inkscape:connector-curvature="0"
     id="path81719"
     d="m 232.14679,266.62602 c -0.53793,-1.00513 -0.97806,-5.2496 -0.97806,-9.43215 v -7.60462 l -9.68288,-7.33832 c -4.79776,-6.18255 -14.61501,-14.24334 -15.5928,-32.15525 0.48808,-20.02897 1.73568,-23.16643 7.56356,-34.73246 3.76139,-7.46486 14.63556,-18.06863 22.81486,-22.02006 30.49425,-14.73181 63.30248,-1.35724 75.40955,31.70922 1.60033,4.3708 2.99115,9.39156 3.34425,24.83714 -1.30526,16.42128 -5.19512,24.88341 -13.94023,30.96435 l -10.86537,8.23096 -0.47241,8.50333 c -0.25982,4.67684 -0.81638,9.0348 -1.23678,9.68436 -1.11713,1.72607 -7.73155,1.48037 -9.24517,-0.34342 -0.69584,-0.83844 -1.49194,-3.49573 -1.76911,-5.9051 -0.40806,-3.54716 -0.88498,-4.43503 -2.50662,-4.66643 -2.18877,-0.31234 -3.15788,1.80409 -3.18091,6.94672 -0.0142,3.15939 -1.47122,5.15724 -3.74491,5.13478 -2.98643,-0.0295 -4.24219,-1.82616 -4.74002,-6.78164 -0.46052,-4.58415 -0.70624,-5.01408 -2.86574,-5.01408 -2.15951,0 -2.40523,0.42993 -2.86575,5.01408 -0.49782,4.95548 -1.75358,6.75213 -4.74001,6.78164 -2.2737,0.0225 -3.73077,-1.97539 -3.74493,-5.13478 -0.0231,-5.14263 -0.99213,-7.25906 -3.1809,-6.94672 -1.62164,0.2314 -2.09855,1.11927 -2.50662,4.66643 -0.66136,5.74913 -2.16876,7.42954 -6.66461,7.42954 -2.62223,0 -3.90193,-0.50748 -4.60839,-1.82752 z m 34.51266,-28.5039 c 0.35425,-0.57318 -0.32104,-3.10272 -1.50064,-5.62121 -3.38116,-7.21892 -6.02047,-7.21892 -9.40164,0 -1.17959,2.51849 -1.85487,5.04803 -1.50063,5.62121 0.35425,0.57318 3.14491,1.04215 6.20146,1.04215 3.05655,0 5.8472,-0.46897 6.20145,-1.04215 z M 241.70488,227.8025 c 4.69949,-1.30532 9.86367,-7.17708 10.70811,-12.1753 0.52668,-3.11733 0.21038,-4.81474 -1.55184,-8.32774 -2.90508,-5.79135 -6.14539,-8.03265 -12.33092,-8.5292 -4.11352,-0.33022 -5.58146,-0.006 -8.28382,1.83112 -7.038,4.78391 -9.40344,12.2337 -6.0969,19.20171 1.91634,4.03836 4.14786,6.00791 8.6101,7.59936 4.42418,1.57786 4.66592,1.58867 8.94527,0.40005 z m 49.11627,-1.45997 c 6.74089,-3.48586 9.54869,-14.06976 5.36529,-20.2243 -3.79113,-5.57741 -7.99227,-7.81426 -13.80068,-7.34797 -6.18552,0.49655 -9.42584,2.73785 -12.33092,8.5292 -2.94058,5.86212 -2.18636,10.8086 2.42661,15.91461 4.99105,5.52449 11.54447,6.6424 18.3397,3.12846 z"
     style="opacity:0.53500001;fill:#000000;stroke-width:0.92242485;filter:url(#filter81388)"
     sodipodi:nodetypes="cscccssccccsccccccsssccccscsccssscccscscccssssc" />
  <path
     sodipodi:nodetypes="cscccssccccsccccccsssccccscsccssscccscscccssssc"
     style="fill:#ffffff;stroke-width:0.99999994"
     d="m 98.824229,138.11449 c -0.5379,-1.00513 -0.9781,-5.2496 -0.9781,-9.43215 v -7.60462 l -9.6828,-7.33832 c -4.7978,-6.18255 -14.6151,-14.243339 -15.5928,-32.155249 0.488,-20.02897 1.7356,-23.16643 7.5635,-34.73246 3.7614,-7.46486 14.6356,-18.06863 22.814901,-22.02006 30.4942,-14.73181 63.3024,-1.35724 75.4095,31.70922 1.6003,4.3708 2.9912,9.39156 3.3443,24.83714 -1.3053,16.42128 -5.1952,24.883409 -13.9403,30.964349 l -10.8653,8.23096 -0.4724,8.50333 c -0.2599,4.67684 -0.8164,9.0348 -1.2368,9.68436 -1.1171,1.72607 -7.7316,1.48037 -9.2452,-0.34342 -0.6958,-0.83844 -1.4919,-3.49573 -1.7691,-5.9051 -0.4081,-3.54716 -0.885,-4.43503 -2.5066,-4.66643 -2.1888,-0.31234 -3.1579,1.80409 -3.1809,6.94672 -0.014,3.15939 -1.4712,5.15724 -3.7449,5.13478 -2.9865,-0.0295 -4.2422,-1.82616 -4.7401,-6.78164 -0.4605,-4.58415 -0.7062,-5.01408 -2.8657,-5.01408 -2.1595,0 -2.4052,0.42993 -2.8657,5.01408 -0.4979,4.95548 -1.7536,6.75213 -4.7401,6.78164 -2.2737,0.0225 -3.7307,-1.97539 -3.7449,-5.13478 -0.023,-5.14263 -0.9921,-7.25906 -3.1809,-6.94672 -1.6216,0.2314 -2.0985,1.11927 -2.5066,4.66643 -0.6614,5.74913 -2.1688,7.42954 -6.6646,7.42954 -2.6222,0 -3.901901,-0.50748 -4.608401,-1.82752 z m 34.512701,-28.5039 c 0.3542,-0.57318 -0.3211,-3.10272 -1.5007,-5.62121 -3.3812,-7.218919 -6.0205,-7.218919 -9.4016,0 -1.1796,2.51849 -1.8549,5.04803 -1.5007,5.62121 0.3543,0.57318 3.1449,1.04215 6.2015,1.04215 3.0565,0 5.8472,-0.46897 6.2015,-1.04215 z m -24.9546,-10.319619 c 4.6995,-1.30532 9.8636,-7.17708 10.7081,-12.1753 0.5267,-3.11733 0.2104,-4.81474 -1.5518,-8.32774 -2.9051,-5.79135 -6.1454,-8.03265 -12.331,-8.5292 -4.1135,-0.33022 -5.581401,-0.006 -8.283801,1.83112 -7.038,4.78391 -9.4034,12.2337 -6.0969,19.20171 1.9164,4.03836 4.1479,6.00791 8.6101,7.59936 4.424201,1.577859 4.665901,1.588669 8.945301,0.40005 z m 49.1162,-1.45997 c 6.7409,-3.48586 9.5487,-14.06976 5.3653,-20.2243 -3.7911,-5.57741 -7.9922,-7.81426 -13.8006,-7.34797 -6.1856,0.49655 -9.4259,2.73785 -12.331,8.5292 -2.9405,5.86212 -2.1863,10.8086 2.4267,15.91461 4.991,5.524489 11.5444,6.642399 18.3396,3.12846 z"
     id="path81721"
     inkscape:connector-curvature="0" />
  <path
     id="path81739"
     d="m 149.25823,4.956331 c -61.776501,-0.0263 -131.155301,2.06228 -143.7656024,4.6582 1.7122,15.8666 24.6787014,48.69923 34.0645004,65.1875 23.977301,39.383399 48.294901,78.906339 77.183602,114.914069 3.6786,3.88373 7.0487,8.96985 12.0468,11.14062 11.225,-8.24502 18.5375,-20.82128 27.043,-31.60742 30.5988,-43.48359 59.3635,-88.420499 83.9688,-135.611329 1.9619,-4.24326 12.4093,-22.64215 9.5195,-24.02344 -8.5623,-3.33832 -52.0121,-4.63772 -100.0606,-4.6582 z m 0.2246,8.57813 c 37.3296,0.0187 71.7643,0.81555 89.2637,2.73828 -17.8259,38.17009 -40.3494,73.95732 -62.7832,109.544919 -13.4625,20.01282 -25.9926,41.03127 -42.7988,58.47851 -2.6635,3.34024 -7.4977,3.59182 -10.3262,0.3086 C 106.77323,168.85705 95.136929,149.2602 82.504329,130.79813 58.842729,93.808511 35.472728,56.430901 16.133229,16.962191 c 24.706299,-1.99701 81.674,-3.45366 133.349601,-3.42773 z"
     style="opacity:0.71100003;fill:url(#linearGradient81741);fill-opacity:1;fill-rule:evenodd;stroke:none;stroke-width:5;stroke-linecap:butt;stroke-linejoin:miter;stroke-miterlimit:4;stroke-dasharray:none;stroke-opacity:1"
     inkscape:connector-curvature="0"
     sodipodi:nodetypes="scccccccssccccccs" />
</svg>
