<svg xmlns="http://www.w3.org/2000/svg" xmlns:xlink="http://www.w3.org/1999/xlink" width="307.28333" height="258.23218">
  <defs>
    <filter id="d" width="1.1873078" height="1.1688489" x="-.09365387" y="-.08442447" color-interpolation-filters="sRGB">
      <feGaussianBlur stdDeviation="4.2586064"/>
    </filter>
    <linearGradient id="c" x1="256.78571" x2="256.78571" y1="259.28571" y2="116.42857" gradientTransform="rotate(-180 206.87901 144.75262)" gradientUnits="userSpaceOnUse" xlink:href="#a"/>
    <linearGradient id="a">
      <stop offset="0" stop-color="#f73e30"/>
      <stop offset="1" stop-color="#e10049"/>
    </linearGradient>
    <filter id="b" width="1.2294366" height="1.2854587" x="-.11471831" y="-.14272937" color-interpolation-filters="sRGB">
      <feGaussianBlur stdDeviation="11.946876"/>
    </filter>
  </defs>
  <path fill-opacity=".28772637" fill-rule="evenodd" d="M277.78743 34.104756c-19.9415-8.89559-225.5996-5.38015-248.4421 0-10.673 2.51383 108.9239 194.853384 125.387 195.453884 14.2138.51846 134.9525-190.146604 123.0551-195.453884z" filter="url(#b)"/>
  <path fill="url(#c)" fill-rule="evenodd" d="M277.78743 16.104756c-19.9415-8.8955899-225.5996-5.38015-248.4421 0-10.673 2.51383 108.9239 194.853384 125.387 195.453884 14.2138.51846 134.9525-190.146604 123.0551-195.453884z"/>
  <path fill="#790027" d="M232.14679 266.62602c-.53793-1.00513-.97806-5.2496-.97806-9.43215v-7.60462l-9.68288-7.33832c-4.79776-6.18255-14.61501-14.24334-15.5928-32.15525.48808-20.02897 1.73568-23.16643 7.56356-34.73246 3.76139-7.46486 14.63556-18.06863 22.81486-22.02006 30.49425-14.73181 63.30248-1.35724 75.40955 31.70922 1.60033 4.3708 2.99115 9.39156 3.34425 24.83714-1.30526 16.42128-5.19512 24.88341-13.94023 30.96435l-10.86537 8.23096-.47241 8.50333c-.25982 4.67684-.81638 9.0348-1.23678 9.68436-1.11713 1.72607-7.73155 1.48037-9.24517-.34342-.69584-.83844-1.49194-3.49573-1.76911-5.9051-.40806-3.54716-.88498-4.43503-2.50662-4.66643-2.18877-.31234-3.15788 1.80409-3.18091 6.94672-.0142 3.15939-1.47122 5.15724-3.74491 5.13478-2.98643-.0295-4.24219-1.82616-4.74002-6.78164-.46052-4.58415-.70624-5.01408-2.86574-5.01408-2.15951 0-2.40523.42993-2.86575 5.01408-.49782 4.95548-1.75358 6.75213-4.74001 6.78164-2.2737.0225-3.73077-1.97539-3.74493-5.13478-.0231-5.14263-.99213-7.25906-3.1809-6.94672-1.62164.2314-2.09855 1.11927-2.50662 4.66643-.66136 5.74913-2.16876 7.42954-6.66461 7.42954-2.62223 0-3.90193-.50748-4.60839-1.82752zm34.51266-28.5039c.35425-.57318-.32104-3.10272-1.50064-5.62121-3.38116-7.21892-6.02047-7.21892-9.40164 0-1.17959 2.51849-1.85487 5.04803-1.50063 5.62121.35425.57318 3.14491 1.04215 6.20146 1.04215s5.8472-.46897 6.20145-1.04215zm-24.95457-10.31962c4.69949-1.30532 9.86367-7.17708 10.70811-12.1753.52668-3.11733.21038-4.81474-1.55184-8.32774-2.90508-5.79135-6.14539-8.03265-12.33092-8.5292-4.11352-.33022-5.58146-.006-8.28382 1.83112-7.038 4.78391-9.40344 12.2337-6.0969 19.20171 1.91634 4.03836 4.14786 6.00791 8.6101 7.59936 4.42418 1.57786 4.66592 1.58867 8.94527.40005zm49.11627-1.45997c6.74089-3.48586 9.54869-14.06976 5.36529-20.2243-3.79113-5.57741-7.99227-7.81426-13.80068-7.34797-6.18552.49655-9.42584 2.73785-12.33092 8.5292-2.94058 5.86212-2.18636 10.8086 2.42661 15.91461 4.99105 5.52449 11.54447 6.6424 18.3397 3.12846z" filter="url(#d)" opacity=".53500001" transform="matrix(1.08476 0 0 1.08344 -129.23637 -129.68821)"/>
  <path fill="#fff" stroke="#8f082a" stroke-width="3" d="M124.98643 146.28693c-.5379-1.00513-.9781-5.2496-.9781-9.43215v-7.60462l-9.6828-7.33832c-4.7978-6.18255-14.6151-14.24334-15.5928-32.155255.488-20.02897 1.7356-23.16643 7.5635-34.73246 3.7614-7.46486 14.6356-18.068629 22.8149-22.020059 30.4942-14.73181 63.3024-1.35724 75.4095 31.709219 1.6003 4.3708 2.9912 9.39156 3.3443 24.83714-1.3053 16.421285-5.1952 24.883415-13.9403 30.964355l-10.8653 8.23096-.4724 8.50333c-.2599 4.67684-.8164 9.0348-1.2368 9.68436-1.1171 1.72607-7.7316 1.48037-9.2452-.34342-.6958-.83844-1.4919-3.49573-1.7691-5.9051-.4081-3.54716-.885-4.43503-2.5066-4.66643-2.1888-.31234-3.1579 1.80409-3.1809 6.94672-.014 3.15939-1.4712 5.15724-3.7449 5.13478-2.9865-.0295-4.2422-1.82616-4.7401-6.78164-.4605-4.58415-.7062-5.01408-2.8657-5.01408s-2.4052.42993-2.8657 5.01408c-.4979 4.95548-1.7536 6.75213-4.7401 6.78164-2.2737.0225-3.7307-1.97539-3.7449-5.13478-.023-5.14263-.9921-7.25906-3.1809-6.94672-1.6216.2314-2.0985 1.11927-2.5066 4.66643-.6614 5.74913-2.1688 7.42954-6.6646 7.42954-2.6222 0-3.9019-.50748-4.6084-1.82752zm34.5127-28.5039c.3542-.57318-.3211-3.10272-1.5007-5.62121-3.3812-7.21892-6.0205-7.21892-9.4016 0-1.1796 2.51849-1.8549 5.04803-1.5007 5.62121.3543.57318 3.1449 1.04215 6.2015 1.04215 3.0565 0 5.8472-.46897 6.2015-1.04215zm-24.9546-10.31962c4.6995-1.30532 9.8636-7.17708 10.7081-12.175305.5267-3.11733.2104-4.81474-1.5518-8.32774-2.9051-5.79135-6.1454-8.03265-12.331-8.5292-4.1135-.33022-5.5814-.006-8.2838 1.83112-7.038 4.78391-9.4034 12.2337-6.0969 19.20171 1.9164 4.038365 4.1479 6.007915 8.6101 7.599365 4.4242 1.57786 4.6659 1.58867 8.9453.40005zm49.1162-1.45997c6.7409-3.48586 9.5487-14.069765 5.3653-20.224305-3.7911-5.57741-7.9922-7.81426-13.8006-7.34797-6.1856.49655-9.4259 2.73785-12.331 8.5292-2.9405 5.86212-2.1863 10.8086 2.4267 15.914615 4.991 5.52449 11.5444 6.6424 18.3396 3.12846z"/>
</svg>
