<svg xmlns="http://www.w3.org/2000/svg" xmlns:xlink="http://www.w3.org/1999/xlink" width="264.13486" height="264.13486">
  <defs>
    <filter id="d" width="1.1873078" height="1.1688489" x="-.09365387" y="-.08442447" color-interpolation-filters="sRGB">
      <feGaussianBlur stdDeviation="4.2586064"/>
    </filter>
    <linearGradient id="c" x1="273.21429" x2="272.5" y1="807.14282" y2="947.14282" gradientTransform="translate(-142.21831 -762.78968)" gradientUnits="userSpaceOnUse" xlink:href="#a"/>
    <linearGradient id="a">
      <stop offset="0" stop-color="#38b1f8"/>
      <stop offset="1" stop-color="#0d8be1"/>
    </linearGradient>
    <filter id="b" width="1.2664" height="1.2664" x="-.1332" y="-.1332" color-interpolation-filters="sRGB">
      <feGaussianBlur stdDeviation="11.575714"/>
    </filter>
  </defs>
  <circle cx="132.06743" cy="132.06743" r="104.28571" fill-opacity=".31589541" filter="url(#b)"/>
  <circle cx="132.06743" cy="120.06743" r="104.28571" fill="url(#c)"/>
  <path fill="#06446e" d="M232.14679 266.62602c-.53793-1.00513-.97806-5.2496-.97806-9.43215v-7.60462l-9.68288-7.33832c-4.79776-6.18255-14.61501-14.24334-15.5928-32.15525.48808-20.02897 1.73568-23.16643 7.56356-34.73246 3.76139-7.46486 14.63556-18.06863 22.81486-22.02006 30.49425-14.73181 63.30248-1.35724 75.40955 31.70922 1.60033 4.3708 2.99115 9.39156 3.34425 24.83714-1.30526 16.42128-5.19512 24.88341-13.94023 30.96435l-10.86537 8.23096-.47241 8.50333c-.25982 4.67684-.81638 9.0348-1.23678 9.68436-1.11713 1.72607-7.73155 1.48037-9.24517-.34342-.69584-.83844-1.49194-3.49573-1.76911-5.9051-.40806-3.54716-.88498-4.43503-2.50662-4.66643-2.18877-.31234-3.15788 1.80409-3.18091 6.94672-.0142 3.15939-1.47122 5.15724-3.74491 5.13478-2.98643-.0295-4.24219-1.82616-4.74002-6.78164-.46052-4.58415-.70624-5.01408-2.86574-5.01408-2.15951 0-2.40523.42993-2.86575 5.01408-.49782 4.95548-1.75358 6.75213-4.74001 6.78164-2.2737.0225-3.73077-1.97539-3.74493-5.13478-.0231-5.14263-.99213-7.25906-3.1809-6.94672-1.62164.2314-2.09855 1.11927-2.50662 4.66643-.66136 5.74913-2.16876 7.42954-6.66461 7.42954-2.62223 0-3.90193-.50748-4.60839-1.82752zm34.51266-28.5039c.35425-.57318-.32104-3.10272-1.50064-5.62121-3.38116-7.21892-6.02047-7.21892-9.40164 0-1.17959 2.51849-1.85487 5.04803-1.50063 5.62121.35425.57318 3.14491 1.04215 6.20146 1.04215s5.8472-.46897 6.20145-1.04215zm-24.95457-10.31962c4.69949-1.30532 9.86367-7.17708 10.70811-12.1753.52668-3.11733.21038-4.81474-1.55184-8.32774-2.90508-5.79135-6.14539-8.03265-12.33092-8.5292-4.11352-.33022-5.58146-.006-8.28382 1.83112-7.038 4.78391-9.40344 12.2337-6.0969 19.20171 1.91634 4.03836 4.14786 6.00791 8.6101 7.59936 4.42418 1.57786 4.66592 1.58867 8.94527.40005zm49.11627-1.45997c6.74089-3.48586 9.54869-14.06976 5.36529-20.2243-3.79113-5.57741-7.99227-7.81426-13.80068-7.34797-6.18552.49655-9.42584 2.73785-12.33092 8.5292-2.94058 5.86212-2.18636 10.8086 2.42661 15.91461 4.99105 5.52449 11.54447 6.6424 18.3397 3.12846z" filter="url(#d)" opacity=".53500001" transform="matrix(1.08476 0 0 1.08344 -150.37058 -98.910289)"/>
  <path fill="#fff" stroke="#0b5587" stroke-width="3" d="M103.85226 177.06485c-.53793-1.00513-.97806-5.2496-.97806-9.43215v-7.60462l-9.682868-7.33832c-4.79776-6.18255-14.61502-14.24334-15.59281-32.15525.48808-20.02897 1.73569-23.166423 7.56357-34.732453 3.76139-7.46486 14.63556-18.06863 22.814848-22.02006 30.49425-14.731813 63.30248-1.35724 75.40955 31.70922 1.60033 4.3708 2.99115 9.391553 3.34425 24.837133-1.30526 16.42128-5.19512 24.88341-13.94023 30.96435l-10.86537 8.23096-.47241 8.50333c-.25982 4.67684-.81638 9.0348-1.23678 9.68436-1.11713 1.72607-7.73155 1.48037-9.24517-.34342-.69584-.83844-1.49194-3.49573-1.76911-5.9051-.40806-3.54716-.88498-4.43503-2.50662-4.66643-2.18877-.31234-3.15788 1.80409-3.18091 6.94672-.0142 3.15939-1.47122 5.15724-3.74491 5.13478-2.98643-.0295-4.24219-1.82616-4.74002-6.78164-.46052-4.58415-.70624-5.01408-2.86574-5.01408-2.15951 0-2.40523.42993-2.86575 5.01408-.49782 4.95548-1.75358 6.75213-4.74001 6.78164-2.2737.0225-3.73077-1.97539-3.74493-5.13478-.0231-5.14263-.99213-7.25906-3.1809-6.94672-1.62164.2314-2.09855 1.11927-2.50662 4.66643-.66136 5.74913-2.16876 7.42954-6.66461 7.42954-2.62223 0-3.90193-.50748-4.60839-1.82752zm34.51266-28.5039c.35425-.57318-.32104-3.10272-1.50064-5.62121-3.38116-7.21892-6.02047-7.21892-9.40164 0-1.17959 2.51849-1.85487 5.04803-1.50063 5.62121.35425.57318 3.14491 1.04215 6.20146 1.04215s5.8472-.46897 6.20145-1.04215zm-24.95457-10.31962c4.69949-1.30532 9.86367-7.17708 10.70811-12.1753.52668-3.11733.21038-4.81474-1.55184-8.32774-2.90508-5.79135-6.14539-8.03265-12.33092-8.5292-4.11352-.33022-5.58146-.006-8.28382 1.83112-7.037988 4.78391-9.403428 12.2337-6.096888 19.20171 1.91634 4.03836 4.147848 6.00791 8.610088 7.59936 4.42418 1.57786 4.66592 1.58867 8.94527.40005zm49.11627-1.45997c6.74089-3.48586 9.54869-14.06976 5.36529-20.2243-3.79113-5.57741-7.99227-7.81426-13.80068-7.34797-6.18552.49655-9.42584 2.73785-12.33092 8.5292-2.94058 5.86212-2.18636 10.8086 2.42661 15.91461 4.99105 5.52449 11.54447 6.6424 18.3397 3.12846z"/>
  <g transform="translate(-127.8339 -417.68138)">
    <circle cx="339.26779" cy="629.0799" r="46.904507" fill="#28da57"/>
    <path fill="#fff" d="M339.26758 578.17578c-28.06641 0-50.9043 22.83789-50.9043 50.9043 0 28.0664 22.83789 50.9043 50.9043 50.9043 28.0664 0 50.9043-22.8379 50.9043-50.9043 0-28.06641-22.8379-50.9043-50.9043-50.9043zm0 8c23.74288 0 42.90429 19.16141 42.9043 42.9043 0 23.74288-19.16142 42.9043-42.9043 42.9043-23.74289 0-42.9043-19.16142-42.9043-42.9043 0-23.74289 19.16141-42.9043 42.9043-42.9043z" color="#000" font-family="sans-serif" font-weight="400" overflow="visible" style="line-height:normal;font-variant-ligatures:normal;font-variant-position:normal;font-variant-caps:normal;font-variant-numeric:normal;font-variant-alternates:normal;font-feature-settings:normal;text-indent:0;text-align:start;text-decoration-line:none;text-decoration-style:solid;text-decoration-color:#000;text-transform:none;text-orientation:mixed;shape-padding:0;isolation:auto;mix-blend-mode:normal" white-space="normal"/>
  </g>
</svg>
