<?xml version="1.0" encoding="UTF-8" standalone="no"?>
<svg
   xmlns:dc="http://purl.org/dc/elements/1.1/"
   xmlns:cc="http://creativecommons.org/ns#"
   xmlns:rdf="http://www.w3.org/1999/02/22-rdf-syntax-ns#"
   xmlns:svg="http://www.w3.org/2000/svg"
   xmlns="http://www.w3.org/2000/svg"
   xmlns:xlink="http://www.w3.org/1999/xlink"
   xmlns:sodipodi="http://sodipodi.sourceforge.net/DTD/sodipodi-0.dtd"
   xmlns:inkscape="http://www.inkscape.org/namespaces/inkscape"
   height="264.13486"
   width="264.13486"
   version="1.1"
   id="svg81625"
   inkscape:version="0.92.2 (5c3e80d, 2017-08-06)"
   sodipodi:docname="editor-mark-visited.svg">
  <title
     id="title20269">Desktop template</title>
  <defs
     id="defs81618">
    <filter
       inkscape:collect="always"
       style="color-interpolation-filters:sRGB"
       id="filter81388"
       x="-0.093653873"
       width="1.1873078"
       y="-0.084424466"
       height="1.1688489">
      <feGaussianBlur
         inkscape:collect="always"
         stdDeviation="4.2586064"
         id="feGaussianBlur81390" />
    </filter>
    <linearGradient
       inkscape:collect="always"
       xlink:href="#linearGradient163420"
       id="linearGradient81749-3"
       gradientUnits="userSpaceOnUse"
       x1="273.21429"
       y1="807.14282"
       x2="272.5"
       y2="947.14282"
       gradientTransform="translate(-142.21831,-762.78968)" />
    <linearGradient
       inkscape:collect="always"
       id="linearGradient163420">
      <stop
         style="stop-color:#38b1f8;stop-opacity:1"
         offset="0"
         id="stop163416" />
      <stop
         style="stop-color:#0d8be1;stop-opacity:1"
         offset="1"
         id="stop163418" />
    </linearGradient>
    <filter
       inkscape:collect="always"
       style="color-interpolation-filters:sRGB"
       id="filter246297"
       x="-0.1332"
       width="1.2664"
       y="-0.1332"
       height="1.2664">
      <feGaussianBlur
         inkscape:collect="always"
         stdDeviation="11.575714"
         id="feGaussianBlur246299" />
    </filter>
  </defs>
  <sodipodi:namedview
     id="base"
     pagecolor="#ffffff"
     bordercolor="#666666"
     borderopacity="1.0"
     inkscape:pageopacity="1"
     inkscape:pageshadow="2"
     inkscape:zoom="0.7"
     inkscape:cx="-600.79025"
     inkscape:cy="380.99769"
     inkscape:document-units="px"
     inkscape:current-layer="svg81625"
     showgrid="false"
     units="px"
     inkscape:window-width="2560"
     inkscape:window-height="1406"
     inkscape:window-x="1920"
     inkscape:window-y="0"
     inkscape:window-maximized="1"
     fit-margin-top="0"
     fit-margin-left="0"
     fit-margin-right="0"
     fit-margin-bottom="0">
    <inkscape:grid
       type="xygrid"
       id="grid20267"
       spacingx="8"
       spacingy="8.0000001"
       empcolor="#ff0000"
       empopacity="0.25098039"
       empspacing="2"
       originx="164.0579"
       originy="26.424736" />
  </sodipodi:namedview>
  <metadata
     id="metadata81622">
    <rdf:RDF>
      <cc:Work
         rdf:about="">
        <dc:format>image/svg+xml</dc:format>
        <dc:type
           rdf:resource="http://purl.org/dc/dcmitype/StillImage" />
        <dc:title>Desktop template</dc:title>
        <dc:creator>
          <cc:Agent>
            <dc:title>Xaviju</dc:title>
          </cc:Agent>
        </dc:creator>
        <dc:subject>
          <rdf:Bag>
            <rdf:li>web desktop 1920x1080</rdf:li>
          </rdf:Bag>
        </dc:subject>
        <cc:license
           rdf:resource="http://creativecommons.org/licenses/by/4.0/" />
      </cc:Work>
      <cc:License
         rdf:about="http://creativecommons.org/licenses/by/4.0/">
        <cc:permits
           rdf:resource="http://creativecommons.org/ns#Reproduction" />
        <cc:permits
           rdf:resource="http://creativecommons.org/ns#Distribution" />
        <cc:requires
           rdf:resource="http://creativecommons.org/ns#Notice" />
        <cc:requires
           rdf:resource="http://creativecommons.org/ns#Attribution" />
        <cc:permits
           rdf:resource="http://creativecommons.org/ns#DerivativeWorks" />
      </cc:License>
    </rdf:RDF>
  </metadata>
  <g
     id="desktop"
     transform="translate(164.0579,-842.28983)" />
  <circle
     cx="132.06743"
     cy="132.06743"
     r="104.28571"
     id="circle246275"
     style="opacity:1;fill:#000000;fill-opacity:0.31589541;stroke:none;stroke-width:5;stroke-linecap:round;stroke-miterlimit:4;stroke-dasharray:none;stroke-dashoffset:0;stroke-opacity:1;filter:url(#filter246297)"
     inkscape:export-xdpi="96"
     inkscape:export-ydpi="96" />
  <circle
     style="opacity:1;fill:url(#linearGradient81749-3);fill-opacity:1;stroke:none;stroke-width:5;stroke-linecap:round;stroke-miterlimit:4;stroke-dasharray:none;stroke-dashoffset:0;stroke-opacity:1"
     id="path81645"
     r="104.28571"
     cy="120.06743"
     cx="132.06743"
     inkscape:export-xdpi="96"
     inkscape:export-ydpi="96" />
  <path
     sodipodi:nodetypes="cscccssccccsccccccsssccccscsccssscccscscccssssc"
     style="opacity:0.53500001;fill:#06446e;fill-opacity:1;stroke-width:0.92242485;filter:url(#filter81388)"
     d="m 232.14679,266.62602 c -0.53793,-1.00513 -0.97806,-5.2496 -0.97806,-9.43215 v -7.60462 l -9.68288,-7.33832 c -4.79776,-6.18255 -14.61501,-14.24334 -15.5928,-32.15525 0.48808,-20.02897 1.73568,-23.16643 7.56356,-34.73246 3.76139,-7.46486 14.63556,-18.06863 22.81486,-22.02006 30.49425,-14.73181 63.30248,-1.35724 75.40955,31.70922 1.60033,4.3708 2.99115,9.39156 3.34425,24.83714 -1.30526,16.42128 -5.19512,24.88341 -13.94023,30.96435 l -10.86537,8.23096 -0.47241,8.50333 c -0.25982,4.67684 -0.81638,9.0348 -1.23678,9.68436 -1.11713,1.72607 -7.73155,1.48037 -9.24517,-0.34342 -0.69584,-0.83844 -1.49194,-3.49573 -1.76911,-5.9051 -0.40806,-3.54716 -0.88498,-4.43503 -2.50662,-4.66643 -2.18877,-0.31234 -3.15788,1.80409 -3.18091,6.94672 -0.0142,3.15939 -1.47122,5.15724 -3.74491,5.13478 -2.98643,-0.0295 -4.24219,-1.82616 -4.74002,-6.78164 -0.46052,-4.58415 -0.70624,-5.01408 -2.86574,-5.01408 -2.15951,0 -2.40523,0.42993 -2.86575,5.01408 -0.49782,4.95548 -1.75358,6.75213 -4.74001,6.78164 -2.2737,0.0225 -3.73077,-1.97539 -3.74493,-5.13478 -0.0231,-5.14263 -0.99213,-7.25906 -3.1809,-6.94672 -1.62164,0.2314 -2.09855,1.11927 -2.50662,4.66643 -0.66136,5.74913 -2.16876,7.42954 -6.66461,7.42954 -2.62223,0 -3.90193,-0.50748 -4.60839,-1.82752 z m 34.51266,-28.5039 c 0.35425,-0.57318 -0.32104,-3.10272 -1.50064,-5.62121 -3.38116,-7.21892 -6.02047,-7.21892 -9.40164,0 -1.17959,2.51849 -1.85487,5.04803 -1.50063,5.62121 0.35425,0.57318 3.14491,1.04215 6.20146,1.04215 3.05655,0 5.8472,-0.46897 6.20145,-1.04215 z M 241.70488,227.8025 c 4.69949,-1.30532 9.86367,-7.17708 10.70811,-12.1753 0.52668,-3.11733 0.21038,-4.81474 -1.55184,-8.32774 -2.90508,-5.79135 -6.14539,-8.03265 -12.33092,-8.5292 -4.11352,-0.33022 -5.58146,-0.006 -8.28382,1.83112 -7.038,4.78391 -9.40344,12.2337 -6.0969,19.20171 1.91634,4.03836 4.14786,6.00791 8.6101,7.59936 4.42418,1.57786 4.66592,1.58867 8.94527,0.40005 z m 49.11627,-1.45997 c 6.74089,-3.48586 9.54869,-14.06976 5.36529,-20.2243 -3.79113,-5.57741 -7.99227,-7.81426 -13.80068,-7.34797 -6.18552,0.49655 -9.42584,2.73785 -12.33092,8.5292 -2.94058,5.86212 -2.18636,10.8086 2.42661,15.91461 4.99105,5.52449 11.54447,6.6424 18.3397,3.12846 z"
     id="path81571"
     inkscape:connector-curvature="0"
     transform="matrix(1.0847582,0,0,1.0834404,-150.37058,-98.910289)"
     inkscape:export-xdpi="96"
     inkscape:export-ydpi="96" />
  <path
     inkscape:connector-curvature="0"
     id="path81573"
     d="m 103.85226,177.06485 c -0.53793,-1.00513 -0.97806,-5.2496 -0.97806,-9.43215 v -7.60462 l -9.682868,-7.33832 c -4.79776,-6.18255 -14.61502,-14.24334 -15.59281,-32.15525 0.48808,-20.02897 1.73569,-23.166423 7.56357,-34.732453 3.76139,-7.46486 14.63556,-18.06863 22.814848,-22.02006 30.49425,-14.731813 63.30248,-1.35724 75.40955,31.70922 1.60033,4.3708 2.99115,9.391553 3.34425,24.837133 -1.30526,16.42128 -5.19512,24.88341 -13.94023,30.96435 l -10.86537,8.23096 -0.47241,8.50333 c -0.25982,4.67684 -0.81638,9.0348 -1.23678,9.68436 -1.11713,1.72607 -7.73155,1.48037 -9.24517,-0.34342 -0.69584,-0.83844 -1.49194,-3.49573 -1.76911,-5.9051 -0.40806,-3.54716 -0.88498,-4.43503 -2.50662,-4.66643 -2.18877,-0.31234 -3.15788,1.80409 -3.18091,6.94672 -0.0142,3.15939 -1.47122,5.15724 -3.74491,5.13478 -2.98643,-0.0295 -4.24219,-1.82616 -4.74002,-6.78164 -0.46052,-4.58415 -0.70624,-5.01408 -2.86574,-5.01408 -2.15951,0 -2.40523,0.42993 -2.86575,5.01408 -0.49782,4.95548 -1.75358,6.75213 -4.74001,6.78164 -2.2737,0.0225 -3.73077,-1.97539 -3.74493,-5.13478 -0.0231,-5.14263 -0.99213,-7.25906 -3.1809,-6.94672 -1.62164,0.2314 -2.09855,1.11927 -2.50662,4.66643 -0.66136,5.74913 -2.16876,7.42954 -6.66461,7.42954 -2.62223,0 -3.90193,-0.50748 -4.60839,-1.82752 z m 34.51266,-28.5039 c 0.35425,-0.57318 -0.32104,-3.10272 -1.50064,-5.62121 -3.38116,-7.21892 -6.02047,-7.21892 -9.40164,0 -1.17959,2.51849 -1.85487,5.04803 -1.50063,5.62121 0.35425,0.57318 3.14491,1.04215 6.20146,1.04215 3.05655,0 5.8472,-0.46897 6.20145,-1.04215 z m -24.95457,-10.31962 c 4.69949,-1.30532 9.86367,-7.17708 10.70811,-12.1753 0.52668,-3.11733 0.21038,-4.81474 -1.55184,-8.32774 -2.90508,-5.79135 -6.14539,-8.03265 -12.33092,-8.5292 -4.11352,-0.33022 -5.58146,-0.006 -8.28382,1.83112 -7.037988,4.78391 -9.403428,12.2337 -6.096888,19.20171 1.91634,4.03836 4.147848,6.00791 8.610088,7.59936 4.42418,1.57786 4.66592,1.58867 8.94527,0.40005 z m 49.11627,-1.45997 c 6.74089,-3.48586 9.54869,-14.06976 5.36529,-20.2243 -3.79113,-5.57741 -7.99227,-7.81426 -13.80068,-7.34797 -6.18552,0.49655 -9.42584,2.73785 -12.33092,8.5292 -2.94058,5.86212 -2.18636,10.8086 2.42661,15.91461 4.99105,5.52449 11.54447,6.6424 18.3397,3.12846 z"
     style="fill:#ffffff;stroke:#0b5587;stroke-width:3;stroke-miterlimit:4;stroke-dasharray:none;stroke-opacity:1"
     sodipodi:nodetypes="cscccssccccsccccccsssccccscsccssscccscscccssssc"
     inkscape:export-xdpi="96"
     inkscape:export-ydpi="96" />
  <g
     id="desktop-4"
     transform="translate(-422.71667,-1056.9545)" />
  <g
     transform="translate(-127.8339,-417.68138)"
     id="g246319"
     inkscape:export-xdpi="96"
     inkscape:export-ydpi="96">
    <circle
       r="46.904507"
       cy="629.0799"
       cx="339.26779"
       id="circle246315"
       style="opacity:1;fill:#28da57;fill-opacity:1;stroke:none;stroke-width:8;stroke-linecap:round;stroke-miterlimit:4;stroke-dasharray:none;stroke-dashoffset:0;stroke-opacity:1" />
    <path
       inkscape:connector-curvature="0"
       id="path246317"
       d="m 339.26758,578.17578 c -28.06641,0 -50.9043,22.83789 -50.9043,50.9043 0,28.0664 22.83789,50.9043 50.9043,50.9043 28.0664,0 50.9043,-22.8379 50.9043,-50.9043 0,-28.06641 -22.8379,-50.9043 -50.9043,-50.9043 z m 0,8 c 23.74288,0 42.90429,19.16141 42.9043,42.9043 0,23.74288 -19.16142,42.9043 -42.9043,42.9043 -23.74289,0 -42.9043,-19.16142 -42.9043,-42.9043 0,-23.74289 19.16141,-42.9043 42.9043,-42.9043 z"
       style="color:#000000;font-style:normal;font-variant:normal;font-weight:normal;font-stretch:normal;font-size:medium;line-height:normal;font-family:sans-serif;font-variant-ligatures:normal;font-variant-position:normal;font-variant-caps:normal;font-variant-numeric:normal;font-variant-alternates:normal;font-feature-settings:normal;text-indent:0;text-align:start;text-decoration:none;text-decoration-line:none;text-decoration-style:solid;text-decoration-color:#000000;letter-spacing:normal;word-spacing:normal;text-transform:none;writing-mode:lr-tb;direction:ltr;text-orientation:mixed;dominant-baseline:auto;baseline-shift:baseline;text-anchor:start;white-space:normal;shape-padding:0;clip-rule:nonzero;display:inline;overflow:visible;visibility:visible;opacity:1;isolation:auto;mix-blend-mode:normal;color-interpolation:sRGB;color-interpolation-filters:linearRGB;solid-color:#000000;solid-opacity:1;vector-effect:none;fill:#ffffff;fill-opacity:1;fill-rule:nonzero;stroke:none;stroke-width:8;stroke-linecap:round;stroke-linejoin:miter;stroke-miterlimit:4;stroke-dasharray:none;stroke-dashoffset:0;stroke-opacity:1;color-rendering:auto;image-rendering:auto;shape-rendering:auto;text-rendering:auto;enable-background:accumulate" />
  </g>
</svg>
