<svg xmlns="http://www.w3.org/2000/svg" width="300" height="300" viewBox="0 0 79.375 79.375">
  <path fill="#0c0c0d" d="M4.057 78.696c-1.708-.788-2.783-1.906-3.51-3.649C.066 73.902 0 69.985 0 43.377c0-32.86-.063-31.74 1.87-33.809C3.538 7.78 4.372 7.58 10.936 7.392l6.174-.175.189-2.954c.164-2.535.308-3.048 1.01-3.616 1.05-.852 1.833-.836 2.97.053.834.655.924.98 1.018 3.616l.102 2.896 7.207.093c5.53.08 7.273 0 7.491-.352.158-.245.287-1.6.29-3.007 0-2.855.652-3.969 2.3-3.969 1.647 0 2.292 1.114 2.298 3.97 0 1.406.133 2.759.291 3.006.217.343 1.962.426 7.492.352l7.206-.093.102-2.896c.094-2.637.186-2.96 1.018-3.616 1.137-.894 1.919-.91 2.97-.053.702.568.845 1.082 1.01 3.616l.19 2.954 6.173.175c6.564.19 7.398.388 9.068 2.176 1.93 2.068 1.869.949 1.869 33.81 0 26.607-.066 30.524-.546 31.67-.729 1.742-1.804 2.86-3.511 3.648-1.342.618-3.107.651-35.633.651-32.525 0-34.29-.04-35.632-.651zm69.738-4.857c.615-.556.645-1.964.645-30.462 0-28.671-.036-29.902-.656-30.472-.565-.51-1.403-.58-6.085-.495l-5.43.093-.19 2.886c-.21 3.23-.838 4.346-2.445 4.346-1.863 0-2.29-.706-2.482-4.116l-.179-3.116-7.206-.093c-5.53-.08-7.274 0-7.492.352-.158.245-.287 1.67-.29 3.163 0 2.402-.095 2.778-.79 3.264-.997.698-2.022.698-3.019 0-.693-.486-.784-.863-.789-3.264 0-1.492-.133-2.916-.29-3.163-.218-.343-1.962-.426-7.492-.352l-7.207.093-.179 3.116c-.192 3.41-.619 4.116-2.482 4.116-1.607 0-2.235-1.115-2.445-4.346l-.19-2.886-5.43-.093c-4.682-.08-5.52-.04-6.086.495-.629.57-.655 1.8-.655 30.41 0 27.25.053 29.873.584 30.463.557.616 2.078.645 34.105.645 30.697 0 33.576-.053 34.166-.584zM17.677 61.591c-.273-.33-.383-1.595-.315-3.626l.102-3.122 4.863-.093 4.864-.092-.102 3.626-.102 3.626-4.446.093c-3.516.08-4.535 0-4.866-.407zm17.495.26c-.137-.137-.245-1.807-.245-3.715v-3.469h9.55l-.102 3.617-.102 3.616-4.43.092c-2.436.053-4.539-.04-4.674-.147zm17.277 0c-.13-.133-.235-1.801-.235-3.715v-3.479l4.851.093 4.851.093.102 3.122c.067 1.998-.045 3.3-.308 3.616-.312.373-1.454.494-4.718.494-2.37 0-4.414-.106-4.543-.234zM17.87 49.29c-.517-.378-.596-.94-.509-3.617l.102-3.168 4.851-.093 4.851-.093v3.5c0 2.867-.102 3.54-.558 3.715-1.09.418-8.103.232-8.738-.232zm17.499.213c-.312-.132-.441-1.208-.441-3.676v-3.499h9.524v3.49c0 2.858-.102 3.53-.558 3.705-.662.251-7.89.238-8.526-.04zm17.287 0c-.312-.132-.441-1.209-.441-3.686V42.31l4.85.093 4.852.093.102 3.169c.133 4.07.13 4.072-5.022 4.035-2.146-.04-4.1-.106-4.342-.204zM17.522 36.802c-.13-.132-.235-1.632-.235-3.339 0-2.707.088-3.15.683-3.469.727-.39 7.7-.511 8.638-.151.457.175.558.848.558 3.705v3.49h-4.704c-2.587 0-4.81-.106-4.94-.235zm17.405-3.255c0-2.857.102-3.529.558-3.704.726-.277 7.683-.277 8.41 0 .456.175.557.848.557 3.704v3.49h-9.525zm17.287 0c0-2.866.102-3.538.558-3.714 1.091-.418 8.103-.232 8.738.235.517.377.596.94.509 3.616l-.102 3.169-4.851.092-4.851.093z"/>
</svg>
