<svg xmlns="http://www.w3.org/2000/svg" width="300" height="300" viewBox="0 0 79.375 79.375">
  <path d="M1.349 1.768l-.675.87C.022 3.478 0 4.482 0 31.118c0 17.916.125 27.855.357 28.303.196.383.95.868 1.676 1.08 1.69.5 17.835.513 19.515.026 1.673-.486 2.354-1.754 1.753-3.268-.24-.604-.698-1.23-1.02-1.394-.322-.162-4.316-.383-8.876-.486l-8.29-.192V7.3H74.26v47.886l-15.186.184c-14.148.172-15.257.232-16.228.884-2.782 1.87-22.661 16.27-23.355 16.92-1.414 1.324-.87 3.775.97 4.374.29.084.847.077 1.235-.027.388-.104 5.812-3.889 12.053-8.412l11.348-8.223H60.56c15.91-.002 17.785-.15 18.458-1.463.232-.452.357-10.39.357-28.306 0-26.636-.024-27.64-.674-28.48l-.675-.87H1.35zm39.154 8.562c-4.269 0-8.362.897-12.28 2.692l1.835 3.67c2.01-.888 3.793-1.495 5.347-1.821a22.064 22.064 0 0 1 4.787-.517c2.55 0 4.498.508 5.845 1.523 1.368.997 2.052 2.42 2.052 4.269 0 1.486-.373 2.755-1.12 3.806-.725 1.051-2.497 2.62-5.315 4.704-2.031 1.523-3.42 2.973-4.166 4.35-.746 1.36-1.12 3.1-1.12 5.22v1.47h4.01v-.898c0-1.722.332-3.1.996-4.133.684-1.033 2.073-2.33 4.166-3.888 2.611-1.994 4.31-3.435 5.098-4.323.788-.907 1.378-1.858 1.772-2.855.415-1.016.622-2.184.622-3.508 0-3.1-1.099-5.501-3.296-7.205-2.196-1.704-5.274-2.556-9.233-2.556zm-1.927 33.743c-2.487 0-3.73 1.232-3.73 3.697 0 1.305.352 2.248 1.056 2.828.705.562 1.596.843 2.674.843 1.181 0 2.103-.317 2.767-.952.663-.652.994-1.559.994-2.719 0-1.196-.331-2.111-.994-2.746-.643-.634-1.565-.951-2.767-.951z"/>
</svg>
