<svg xmlns="http://www.w3.org/2000/svg" width="300" height="300" viewBox="0 0 79.375 79.375">
  <path d="M2.914.015C2.82-.01 2.687-.01 2.485.066c-.807.27-1.352.87-1.794 1.57-.175.28-.23.66-.175.974.05.313.18.59.358.897.356.615.945 1.361 1.903 2.447 1.915 2.172 5.305 5.66 11.055 11.472C21.338 25.01 29.42 33.23 31.768 35.67l3.742 3.882-17.1 17.491A1626.15 1626.15 0 0 0 5.868 70.001a406.998 406.998 0 0 0-3.873 4.097c-.464.5-.83.904-1.089 1.198-.128.15-.233.266-.314.365a2.074 2.074 0 0 0-.112.144c-.035.051-.069.051-.14.27-.192.561 0 1 .219 1.374.219.373.527.709.91.99.316.231.637.441.919.602.142.085.27.147.4.205.131.06.201.129.529.129l.22-.025c.001-.001.086-.026.113-.043.05-.026.085-.034.105-.051.051-.026.068-.051.097-.068.043-.034.086-.068.125-.102.087-.076.194-.168.33-.294.27-.25.652-.61 1.134-1.073.965-.926 2.335-2.26 4.014-3.905A2334.18 2334.18 0 0 0 22.406 60.99L40.03 43.423l17.366 17.596c8.091 8.198 12.602 12.723 15.26 15.162 1.33 1.22 2.186 1.92 2.878 2.323.345.2.66.335 1.002.381.343.043.708-.034.961-.174a3.314 3.314 0 0 0 1.112-.977c.285-.392.506-.83.506-1.37 0-.269-.068-.347-.106-.43-.034-.085-.076-.146-.119-.212a6.535 6.535 0 0 0-.318-.429 29.81 29.81 0 0 0-1.073-1.269 178.163 178.163 0 0 0-3.853-4.17c-3.243-3.425-7.712-8.005-12.625-12.92l-17.27-17.28L61.023 22.35c4.913-4.923 9.38-9.5 12.622-12.917a187.867 187.867 0 0 0 3.85-4.155c.459-.515.817-.932 1.073-1.252.129-.16.23-.296.314-.423.043-.06.086-.125.122-.205.043-.086.108-.15.108-.436A2.78 2.78 0 0 0 77.815.588a2.709 2.709 0 0 0-2.694-.06c-.182.099-.23.153-.34.247a11.7 11.7 0 0 0-.397.35c-.313.283-.727.67-1.234 1.156-1.013.97-2.4 2.328-4.062 3.978-3.324 3.3-7.753 7.766-12.487 12.606l-16.626 17-17.663-17.628C17.289 13.224 12.64 8.694 9.19 5.43a175.113 175.113 0 0 0-4.177-3.854A28.08 28.08 0 0 0 3.77.526 4.85 4.85 0 0 0 3.347.22C3.279.178 3.217.135 3.116.1 3.065.073 3.01.039 2.913.013z"/>
</svg>
