<svg xmlns="http://www.w3.org/2000/svg" width="300" height="300" viewBox="0 0 79.375 79.375">
  <path d="M20.461 77.549c-1.84-.599-2.384-3.05-.97-4.374.694-.65 20.573-15.05 23.355-16.92.971-.652 2.08-.712 16.228-.884l15.186-.184V7.301H5.115v47.886l8.29.192c4.56.103 8.554.324 8.876.486.322.164.78.79 1.02 1.394.601 1.514-.08 2.782-1.753 3.268-1.68.487-17.825.474-19.515-.027-.726-.211-1.48-.696-1.676-1.079C.125 58.973 0 49.034 0 31.118 0 4.482.022 3.477.674 2.638l.675-.87h76.677l.675.87c.65.839.674 1.844.674 28.48 0 17.916-.125 27.854-.357 28.306-.673 1.313-2.548 1.461-18.458 1.463H45.097L33.749 69.11c-6.241 4.523-11.665 8.308-12.053 8.412-.388.104-.944.111-1.235.027zm-1.058-33.228a2.479 2.479 0 0 1 .224-3.657c.915-.75 1.24-.763 20.061-.763 18.82 0 19.147.026 20.06.763a2.48 2.48 0 0 1 .225 3.657c-.688.72-1.175.736-20.284.736-19.109 0-19.596-.026-20.285-.736zm1.058-10.57c-1.832-.72-2.385-3.095-1.021-4.383.711-.673 1.562-.702 20.248-.702 18.685 0 19.536.027 20.247.702.984.929.984 2.823 0 3.753-.709.67-1.604.704-19.843.77-10.506.036-19.34-.027-19.63-.14zm8.274-12.067c-1.057-1.105-1.095-2.008-.133-3.282l.73-.971h20.712l.731.97c.96 1.275.923 2.178-.134 3.283l-.865.904H29.603z"/>
</svg>
