<svg xmlns="http://www.w3.org/2000/svg" width="300" height="300" viewBox="0 0 300 300">
  <path d="M1.274 260.633C.07 259.932 0 253.89 0 150.001 0 42.102.025 40.098 1.408 39.358c1.968-1.053 295.216-1.053 297.184 0 1.382.74 1.408 2.744 1.408 110.654s-.026 109.914-1.408 110.654c-1.948 1.042-295.527 1.01-297.318-.033zm269.158-30.22c.243-.633.442-29.15.442-63.372 0-53.637-.146-62.276-1.054-62.625-.669-.256-22.573 17.393-59.891 48.26-35.022 28.966-59.426 48.657-60.293 48.65-.845-.008-25.77-20.2-59.355-48.088-31.844-26.44-58.34-48.346-58.88-48.68-.608-.376-1.223-.225-1.617.397-.706 1.115-.917 123.631-.216 125.459.4 1.043 11.689 1.151 120.432 1.151s120.031-.108 120.432-1.151zm-63.588-114.918c30.41-25.13 55.292-45.994 55.292-46.364 0-.408-44.226-.672-112.56-.672-66.588 0-112.462.268-112.319.656.134.362 12.858 11.106 28.277 23.876l55.93 46.32c20.764 17.197 28.175 22.946 28.991 22.49.603-.338 25.978-21.175 56.389-46.306z"/>
</svg>
