<svg xmlns="http://www.w3.org/2000/svg" height="300" width="300">
  <path d="M117.174 225.12l-.121-74.88-18.45-.24-18.451-.24V98.482l18.45-.24 18.45-.239.299-22.763c.163-12.52.446-23.627.628-24.68.182-1.055.553-3.427.824-5.272 3.614-24.606 15.908-38.467 38.266-43.145C166.159.241 170.487 0 195.497 0h24.351v25.304c0 19.041-.142 25.445-.575 25.878-.423.423-4.54.575-15.544.575-19.825 0-23.627.783-27.313 5.621-2.46 3.23-2.73 5.581-2.775 24.092l-.039 16.533 22.745.125c12.509.068 22.922.303 23.14.52.218.219-.036 4.476-.565 9.46-3.563 33.577-4.404 41.12-4.628 41.483-.14.225-9.275.409-20.301.409-17.84 0-20.08.084-20.34.758-.16.417-.29 34.167-.29 75V300h-56.068z" fill="#020202"/>
</svg>
