<svg xmlns="http://www.w3.org/2000/svg" width="300" height="300" viewBox="0 0 79.375 79.375">
  <path stroke="#fff" stroke-width=".127" d="M65.594 77.727c-3.412-1.039-6.125-3.433-7.436-6.564l-.647-1.544H29.706c-18.26 0-28.12-.17-28.724-.492C-.06 68.57-.27 66.34.633 65.437c.43-.43 7.413-.57 28.515-.57h27.945l.809-1.543c2.07-3.951 6.566-7.008 10.307-7.008 3.689 0 7.978 2.73 9.75 6.209 1.25 2.45 1.263 6.97.03 9.37-2.416 4.689-7.809 7.227-12.392 5.832zm5.717-5.503c4.21-2.178 3.49-8.866-1.146-10.631-4.008-1.527-8.217 1.794-7.744 6.11.463 4.221 5.005 6.531 8.89 4.52zM36.866 50.188c-3.44-.88-6.5-3.473-7.796-6.607l-.63-1.518H15.17c-8.239 0-13.618-.186-14.188-.491-1.073-.574-1.253-2.916-.285-3.719.42-.35 5.126-.567 14.076-.651 12.843-.122 13.466-.17 13.97-1.069 1.98-3.546 3.298-4.991 5.595-6.137 5.749-2.866 11.781-.56 15.21 5.813l.809 1.504h13.766c13.688 0 13.77 0 14.506 1.056.951 1.358.933 1.6-.21 2.744-.907.907-1.583.95-14.716.95H49.938l-.646 1.545c-2.011 4.8-7.671 7.798-12.426 6.581zm6.228-6.36c3.24-2.97 2.424-8.003-1.566-9.671-3.572-1.493-7.575.714-8.076 4.453-.533 3.974 1.91 6.774 5.915 6.777 1.628 0 2.358-.304 3.727-1.559zM7.45 22.35C3.146 20.816.468 17.41.154 13.068c-.275-3.823.787-6.55 3.479-8.92C9.405-.937 17.108.875 21.055 8.245l.809 1.51h27.945c21.101 0 28.084.14 28.515.57.903.904.692 3.132-.349 3.689-.603.323-10.4.492-28.515.492H21.864l-.81 1.511C18 21.722 12.662 24.208 7.452 22.35zm6.757-5.363c3.94-2.582 2.919-9.012-1.663-10.473-5.125-1.635-9.623 4.108-6.8 8.68 1.839 2.975 5.483 3.747 8.463 1.793z"/>
</svg>
