<svg xmlns="http://www.w3.org/2000/svg" width="300" height="300" viewBox="0 0 79.375 79.375">
  <path d="M66.642 71.894c-4.182-4.155-7.817-7.555-8.078-7.555-.26 0-1.598.608-2.972 1.353-12.673 6.864-28.116.042-31.784-14.035-2.974-11.42 4.321-23.402 16.12-26.474 11.387-2.967 23.402 4.322 26.457 16.05 1.35 5.186.616 10.78-2.067 15.733-.744 1.374-1.353 2.712-1.353 2.972 0 .261 3.4 3.896 7.556 8.078 7.907 7.956 8.408 8.75 6.64 10.518-1.769 1.769-2.562 1.267-10.52-6.64zM51.73 61.428c3.488-1.597 6.391-4.453 8.144-8.014 1.327-2.695 1.488-3.447 1.488-6.934 0-3.488-.161-4.24-1.488-6.935a17.277 17.277 0 0 0-8.277-8.093c-2.166-1.008-3.247-1.209-6.491-1.209-3.245 0-4.325.201-6.491 1.209a17.277 17.277 0 0 0-8.277 8.093c-1.33 2.702-1.487 3.437-1.479 6.925.022 3.232.215 4.344 1.207 6.476 3.93 8.45 13.528 12.207 21.664 8.482zM4.58 76.276c-.504-.215-1.432-.943-2.061-1.62l-1.145-1.232V46.955l1.496-1.497 1.495-1.497 6.633-.148 6.632-.148v5.563h-4.579c-6.679 0-6.411-.46-6.411 10.99 0 8.548.06 9.22.916 10.074.855.855 1.526.916 10.096.916h9.18l1.127-1.215 1.126-1.215 1.63.871c3.641 1.947 3.968 3.152 1.498 5.52l-1.362 1.305-12.678.097c-6.973.05-13.09-.076-13.594-.294zm0-43.971c-.504-.208-1.432-.933-2.061-1.61l-1.145-1.232V2.994L2.87 1.497 4.368 0h26.524l1.497 1.496 1.498 1.496.14 9.098.14 9.098-2.414 1.393c-1.327.767-2.576 1.294-2.774 1.171-.199-.121-.36-3.92-.36-8.438 0-10.903.936-10.047-10.99-10.047-8.548 0-9.22.059-10.074.915-.855.855-.916 1.527-.916 10.075 0 11.906-.818 10.99 9.818 10.99 4.393 0 8.077.155 8.188.343.112.188-.606 1.426-1.592 2.748l-1.793 2.404-7.883-.025c-4.336-.026-8.295-.2-8.799-.408zm62.81-1.75c-.923-1.258-1.678-2.516-1.678-2.797 0-.314.97-.511 2.519-.511 1.908 0 2.74-.222 3.434-.916.855-.855.916-1.526.916-10.074s-.06-9.22-.916-10.075c-.855-.854-1.526-.915-10.074-.915-11.681 0-10.99-.491-10.99 7.799 0 4.354-.155 6.025-.573 6.182-.314.118-1.5.05-2.633-.143l-2.06-.357V2.992l1.497-1.496L48.329 0h26.524l1.497 1.497 1.497 1.497V29.52l-1.474 1.474c-1.29 1.29-1.84 1.498-4.39 1.66l-2.916.186z"/>
</svg>
