<svg xmlns="http://www.w3.org/2000/svg" width="300" height="300" viewBox="0 0 79.375 79.375">
  <path d="M39.715 0c-12.542 0-19.917.03-24.34.148-4.422.119-5.89.297-6.725.728-.83.43-1.574.714-2.104 1.604-.53.891-.826 2.283-1.025 4.973-.399 5.381-.366 4.311-.366 26.413 0 22.077-.041 32.593.347 37.902.195 2.654.486 4.023 1.006 4.916.52.893 1.242 1.208 2.065 1.718.768.478 1.986.683 6.27.808 4.283.125 11.67.155 24.762.164 16.128 0 23.941.037 28.04-.37 2.048-.203 3.193-.511 3.982-1.044.788-.531 1.143-1.243 1.642-2.088.49-.829.684-2.244.808-7.999.125-5.754.144-15.867.144-34.03 0-18.162-.021-16.569-.144-22.323-.123-5.755-.318-7.17-.808-8-.499-.843-.855-1.555-1.642-2.087C70.839.9 69.695.589 67.652.385 63.565-.025 55.78.003 39.715.003zM10.692 3.258h57.993l1.14 1.14 1.138 1.14v68.311l-1.139 1.14-1.14 1.143-28.325.136c-15.266.074-22.898.107-26.84-.217-1.97-.162-3.005-.42-3.585-.754-.58-.334-.782-.748-1.136-1.44-.021-.045-.091-.282-.144-.667a23.338 23.338 0 0 1-.145-1.658c-.085-1.449-.152-3.613-.195-6.715-.085-6.203-.091-16.15-.039-31.644L8.412 5.54l1.14-1.14zm28.996 7.062c-8.077 0-12.2 0-14.343.148-1.072.074-1.649.156-2.054.373a.963.963 0 0 0-.439.469 1.29 1.29 0 0 0-.076.503c0 .146.001.312.076.5.074.187.236.36.439.468.405.217.982.302 2.054.373 2.144.143 6.266.149 14.343.149 8.078 0 12.2 0 14.344-.149 1.072-.073 1.645-.156 2.05-.373a.97.97 0 0 0 .442-.469c.076-.187.076-.353.076-.499a1.27 1.27 0 0 0-.076-.503.967.967 0 0 0-.442-.469c-.405-.217-.978-.302-2.05-.373-2.144-.142-6.266-.148-14.344-.148zm-19.275 5.506c-3.947 0-6 0-7.14.16-.57.076-.946.176-1.213.434-.267.259-.297.614-.297.9 0 .285.031.637.297.895.267.258.642.359 1.212.435 1.14.151 3.194.16 7.141.16 3.948 0 6.002 0 7.142-.16.57-.076.941-.176 1.208-.435.267-.258.3-.61.3-.895 0-.286-.032-.642-.3-.9-.267-.258-.638-.358-1.208-.434-1.14-.152-3.194-.16-7.142-.16zm22.027 5.507c-12.208 0-18.396 0-21.562.144-1.583.074-2.398.163-2.915.355-.258.096-.47.241-.583.446-.113.204-.111.402-.111.549 0 .146 0 .34.111.545.113.204.325.354.583.45.517.19 1.332.28 2.915.35 3.166.14 9.354.144 21.562.144 12.207 0 18.399 0 21.565-.144 1.583-.074 2.398-.16 2.915-.35.259-.096.47-.242.583-.447.113-.205.111-.401.111-.548 0-.146 0-.345-.115-.549-.113-.204-.32-.35-.579-.446-.517-.191-1.332-.28-2.915-.35-3.166-.14-9.358-.149-21.565-.149zm-2.752 5.51c-13.584 0-20.465.001-23.973.14-1.754.074-2.651.16-3.205.347-.277.093-.495.234-.621.442-.125.208-.125.413-.125.56 0 .147.001.353.125.561.125.207.344.345.621.438.554.185 1.45.277 3.205.347 3.508.14 10.39.144 23.973.144 13.585 0 20.462 0 23.97-.14 1.754-.074 2.655-.16 3.209-.346.277-.094.495-.235.621-.442.125-.208.125-.414.125-.56 0-.147 0-.353-.125-.561-.125-.208-.344-.345-.621-.438-.554-.185-1.455-.277-3.209-.347-3.508-.14-10.385-.144-23.97-.144zm0 5.507c-13.584 0-20.465 0-23.973.14-1.754.074-2.651.164-3.205.35-.277.094-.495.23-.621.438-.125.208-.125.414-.125.56 0 .147.001.353.125.561.125.207.344.345.621.438.554.185 1.45.277 3.205.347 3.508.14 10.39.148 23.973.148 13.585 0 20.462 0 23.97-.145 1.754-.073 2.655-.16 3.209-.346.277-.094.495-.235.621-.442.125-.208.125-.413.125-.56 0-.146 0-.353-.125-.56-.125-.208-.344-.346-.621-.439-.554-.185-1.455-.276-3.209-.346-3.508-.141-10.385-.145-23.97-.145zm2.752 5.506c-12.208 0-18.396 0-21.562.145-1.583.073-2.398.158-2.915.35-.258.097-.47.246-.583.45-.113.205-.111.399-.111.546 0 .146 0 .344.111.548.113.204.325.35.583.446.517.191 1.332.284 2.915.354 3.166.141 9.354.145 21.562.145 12.207 0 18.399 0 21.565-.145 1.583-.074 2.398-.16 2.915-.35.259-.096.47-.245.583-.45.113-.205.111-.402.111-.548 0-.146 0-.341-.115-.545-.113-.205-.32-.354-.579-.45-.517-.191-1.332-.28-2.915-.351-3.166-.14-9.358-.145-21.565-.145zm-2.752 5.507c-13.584 0-20.465 0-23.973.144-1.754.074-2.651.16-3.205.347-.277.094-.495.23-.621.438-.125.208-.125.413-.125.56 0 .146.001.353.125.56.125.209.344.346.621.439.554.185 1.45.28 3.205.35 3.508.141 10.39.145 23.973.145 13.585 0 20.462 0 23.97-.145 1.754-.074 2.655-.16 3.209-.346.277-.094.495-.23.621-.438.125-.208.125-.418.125-.565 0-.146 0-.352-.125-.56-.125-.208-.344-.345-.621-.438-.554-.185-1.455-.277-3.209-.347-3.508-.14-10.385-.144-23.97-.144zm0 5.506c-13.584 0-20.465 0-23.973.145-1.754.074-2.651.16-3.205.347-.277.093-.495.23-.621.438-.125.208-.125.417-.125.564 0 .146.001.352.125.56.125.208.344.345.621.438.554.185 1.45.277 3.205.347 3.508.14 10.39.144 23.973.144 13.585 0 20.462 0 23.97-.144 1.754-.074 2.655-.16 3.209-.347.277-.094.495-.23.621-.438.125-.208.125-.413.125-.56 0-.146 0-.353-.125-.56-.125-.209-.344-.346-.621-.439-.554-.185-1.455-.28-3.209-.35-3.508-.14-10.385-.145-23.97-.145zm0 5.507c-13.584 0-20.465 0-23.973.144-1.754.074-2.651.16-3.205.347-.277.094-.495.23-.621.438-.125.208-.125.417-.125.564 0 .146.001.353.125.56.125.208.344.346.621.439.554.185 1.45.276 3.205.346 3.508.14 10.39.145 23.973.145 13.585 0 20.462 0 23.97-.145 1.754-.074 2.655-.16 3.209-.346.277-.094.495-.23.621-.438.125-.208.125-.414.125-.56 0-.147 0-.353-.125-.561-.125-.208-.344-.345-.621-.438-.554-.185-1.455-.28-3.209-.35-3.508-.14-10.385-.145-23.97-.145zm0 5.506c-5.324 0-8.067 0-9.538.157-.735.074-1.17.16-1.49.404a.957.957 0 0 0-.324.468 1.53 1.53 0 0 0-.052.465c0 .145 0 .298.052.466a.946.946 0 0 0 .324.465c.32.245.755.334 1.49.408 1.47.146 4.214.152 9.538.152s8.068 0 9.539-.152c.735-.074 1.169-.162 1.49-.408a.943.943 0 0 0 .324-.465 1.56 1.56 0 0 0 .052-.466c0-.144 0-.296-.052-.465a.954.954 0 0 0-.324-.468c-.321-.245-.755-.33-1.49-.404-1.47-.146-4.215-.157-9.539-.157zm19.275 5.51c-3.947 0-6 .001-7.141.157-.57.076-.945.18-1.212.438s-.297.61-.297.896c0 .286.03.637.297.895s.642.362 1.212.438c1.14.152 3.194.157 7.141.157 3.948 0 6.001 0 7.142-.157.57-.076.94-.179 1.208-.438.267-.258.3-.61.3-.895 0-.286-.033-.637-.3-.896-.267-.258-.638-.362-1.208-.438-1.14-.152-3.194-.156-7.142-.156z"/>
</svg>
