<svg xmlns="http://www.w3.org/2000/svg" width="300" height="300" viewBox="0 0 79.375 79.375">
  <path fill="#090909" d="M38.705 79.153c-.5-.272-5.173-7.286-8.71-13.075-7.003-11.459-12.3-21.606-14.85-28.446-1.806-4.849-2.505-8.388-2.364-11.981.328-8.339 4.627-16.035 11.708-20.954 1.462-1.016 4.916-2.736 6.691-3.33C34.675.193 39.1-.275 42.597.158c3.547.44 5.852 1.133 9.114 2.744 7.2 3.557 12.559 10.431 14.275 18.312.447 2.053.713 5.065.6 6.8-.141 2.138-.655 4.433-1.716 7.642-2.711 8.202-9.025 20.232-18.184 34.65-4.001 6.3-5.46 8.441-5.978 8.783-.537.354-1.416.382-2.003.063zm3.206-8.89c10.795-16.641 18.54-31.84 20.183-39.61.483-2.284.557-3.426.36-5.567-.362-3.971-1.548-7.437-3.642-10.643a23.013 23.013 0 0 0-15.09-10.041c-2.078-.38-5.995-.38-8.07 0-9.275 1.7-16.705 9.023-18.479 18.21-.375 1.945-.482 4.52-.253 6.116.96 6.684 5.765 17.222 14.637 32.104 4.012 6.73 7.87 12.647 8.18 12.547.108-.035 1.084-1.437 2.174-3.117zm-4.064-28.657c-4.933-.633-9.272-3.676-11.473-8.047-3.791-7.53-.778-16.507 6.777-20.186 2.839-1.382 5.94-1.87 8.754-1.379 3.518.615 6.117 1.98 8.532 4.48 1.795 1.86 2.942 3.862 3.61 6.306 2.437 8.905-3.618 17.83-12.78 18.837-1.741.193-1.84.19-3.42-.025zm5.364-4.537c1.653-.588 2.784-1.309 4.122-2.627 1.298-1.279 2.024-2.412 2.653-4.138.393-1.079.431-1.39.431-3.524 0-2.133-.038-2.445-.431-3.524-.638-1.753-1.36-2.87-2.737-4.24-1.673-1.663-3.532-2.605-5.907-2.994-1.549-.253-1.76-.253-3.305 0-4.364.717-7.853 3.88-8.919 8.089-.31 1.22-.312 3.893 0 5.192.896 3.798 3.838 6.846 7.713 7.989 1.554.458 4.786.345 6.386-.223z"/>
</svg>
