<svg xmlns="http://www.w3.org/2000/svg" width="300" height="300" viewBox="0 0 79.375 79.375">
  <path d="M61.736 68.876c-5.76-5.775-10.821-10.5-11.245-10.5-.425 0-2.888 1.01-5.473 2.245-6.292 3.005-16.336 3.665-22.871 1.505-9.084-3.004-15.413-8.572-19.535-17.189C.256 40.012 0 38.697 0 31.498c0-6.9.305-8.63 2.251-12.782 3.144-6.707 9.042-12.714 15.702-15.993C23.015.23 24.16 0 31.481 0c6.997 0 8.627.294 13.036 2.35 10.941 5.104 18.027 15.503 18.714 27.468.36 6.253-.25 8.975-4.098 18.279l-1.132 2.74 10.687 10.71c5.878 5.892 10.687 11.105 10.687 11.585 0 1.088-5.246 6.243-6.352 6.243-.447 0-5.526-4.725-11.287-10.5zM42.784 53.819c8.772-4.291 13.447-12.035 13.475-22.32.029-8.244-2.882-14.562-8.875-19.298-5.32-4.206-9.09-5.454-16.306-5.396C11.512 6.962-.04 28.513 10.576 45.057c6.92 10.783 20.518 14.482 32.208 8.762z"/>
</svg>
