<svg xmlns="http://www.w3.org/2000/svg" width="300" height="300" viewBox="0 0 79.375 79.375">
  <path d="M13.617 79.261c-1.428-.388-2.534-1.619-2.762-3.07-.12-.763-.117-52.628.001-53.379.24-1.503 1.398-2.76 2.854-3.095.234-.054 3.178-.086 8.056-.088h7.689v1.843c0 1.014-.021 1.853-.021 1.864-.02.023-3.358.038-7.437.062l-7.416.046-.02 26.056c-.02 20.79 0 26.07.084 26.122.058.031 11.776.063 26.04.063s25.982-.031 26.04-.063c.084-.054.1-5.333.084-26.122l-.021-26.056-7.416-.046a828.199 828.199 0 0 1-7.437-.062c-.02-.024-.02-.85-.02-1.864V19.63h7.687c4.88 0 7.823.03 8.057.088 1.46.337 2.613 1.587 2.854 3.095.119.75.12 52.616 0 53.379-.23 1.477-1.418 2.764-2.855 3.095-.578.134-53.547.109-54.039-.023zm26.145-29.99a2.175 2.175 0 0 1-.629-.558l-.251-.356-.023-22.258c-.02-14.67-.049-19.55-.105-19.605-.057-.054-1.478 1.307-4.252 4.073l-4.169 4.156-.46.101c-.847.185-1.64-.209-2.042-1.014-.275-.553-.28-.993-.021-1.542C28.093 11.674 39.36.42 39.926.165c.476-.213 1.11-.219 1.55-.023.23.107 2.187 2.015 6.17 6.01 6.367 6.387 6.182 6.174 6.086 7.03-.099.88-.928 1.662-1.767 1.668-.238 0-.546-.024-.684-.062-.177-.047-1.488-1.302-4.412-4.22-2.41-2.405-4.2-4.128-4.253-4.096-.066.04-.092 3.492-.092 19.508v22.188l-.196.37a2.11 2.11 0 0 1-.551.62c-.308.217-.445.255-1 .278-.55.023-.696-.001-1.02-.175z"/>
</svg>
