<svg xmlns="http://www.w3.org/2000/svg" width="300" height="300" viewBox="0 0 79.375 79.375">
  <path d="M39.501 4.44c-2.028.004-4.24.343-6.083.962-1.249.418-3.678 1.628-4.707 2.342-4.98 3.46-8.005 8.874-8.236 14.74-.099 2.527.392 5.017 1.664 8.427 1.793 4.812 5.519 11.95 10.445 20.01 2.488 4.072 5.775 9.006 6.127 9.197.412.224 1.031.205 1.409-.044.145-.096.402-.404.826-1.003l.595-.155.055-.014.05-.02 1.625-.571.053-.018.051-.024 1.348-.607-1.088-2.412-.249.112c.31-.483.57-.886.939-1.466 6.443-10.142 10.883-18.605 12.79-24.374.746-2.258 1.108-3.871 1.207-5.376.08-1.22-.107-3.338-.421-4.782-1.207-5.544-4.977-10.38-10.042-12.881-2.294-1.133-3.916-1.622-6.41-1.93A15.767 15.767 0 0 0 39.5 4.44zm-.1 2.897c1.054 0 2.108.066 2.839.2A16.189 16.189 0 0 1 52.855 14.6c1.472 2.255 2.306 4.693 2.561 7.487.138 1.506.086 2.31-.253 3.916-1.156 5.465-6.603 16.156-14.197 27.862-.766 1.182-1.453 2.167-1.53 2.192-.217.07-2.93-4.093-5.753-8.826-6.241-10.469-9.621-17.881-10.296-22.582-.162-1.123-.087-2.935.177-4.302 1.249-6.463 6.475-11.614 13-12.81.73-.134 1.783-.2 2.837-.2zm.338 4.14c-1.798-.024-3.666.386-5.495 1.27-1.744.842-4.063 3.103-4.865 4.695-1.243 2.467-1.51 3.136-1.613 7.407.208 3.82 2.301 5.538 3.325 6.857l2.065 1.564v1.622c0 .892.094 1.797.208 2.011.151.282.424.39.983.39.959 0 1.28-.359 1.421-1.585.087-.756.189-.945.535-.994.466-.067.668.384.678 1.48.003.674.314 1.1.799 1.096.636-.006.904-.39 1.01-1.447.099-.977.15-1.069.611-1.069.46 0 .513.092.612 1.07.106 1.056.374 1.439 1.01 1.446.485.005.79-.422.8-1.095.004-1.097.211-1.548.678-1.481.346.049.446.238.534.994.059.514.228 1.081.377 1.26.322.389 1.734.441 1.972.073.09-.138.207-1.068.263-2.065l.101-1.813 2.317-1.755c1.865-1.297 2.694-3.102 2.973-6.604-.076-3.293-.372-4.364-.713-5.296-1.856-5.068-5.992-7.967-10.586-8.03zM34.16 22.41c.161-.002.345.007.565.024 1.319.106 2.01.584 2.63 1.82.376.748.442 1.11.33 1.775-.18 1.066-1.281 2.318-2.284 2.597-.912.253-.963.25-1.907-.086-.951-.34-1.427-.76-1.836-1.62-.705-1.487-.2-3.075 1.3-4.095.432-.297.717-.408 1.202-.415zm10.145.012c1.122-.025 1.956.465 2.714 1.58.892 1.312.294 3.569-1.144 4.312-1.449.75-2.846.51-3.91-.667-.984-1.089-1.145-2.144-.518-3.394.62-1.235 1.31-1.713 2.63-1.819.077-.006.153-.01.228-.012zm-4.905 6.05c.321 0 .643.384 1.003 1.154.252.537.395 1.077.32 1.199-.076.122-.67.222-1.323.222-.652 0-1.246-.1-1.322-.222-.075-.122.069-.662.32-1.199.36-.77.681-1.154 1.002-1.154zM13.055 42.59c-1.226 0-1.822 1.113-2.26 2.258-3.44 8.979-7.065 18.496-10.63 27.83-.712 1.862 1.034 2.257 2.26 2.257H76.95c1.226 0 2.976-.377 2.258-2.257l-10.63-27.83c-.438-1.145-1.032-2.258-2.259-2.258H53.991l-1.666 2.923h13.33l2.333 6.12-1.764 1.725 1.417 1.448 1.595 1.851.026.03.417.513.329-.267 5.748 15.08H3.616l6.426-16.857 1.573-.228-.12-.845-.11-1.139-.002-.021-.053-.971-.001-.171 2.389-6.268h12.653l-1.72-2.923zm44.576 4.73l-.031 2.646.916.012 1.07.088 1.004.16.89.222.89.31.864-2.503-.94-.324-.056-.02-.056-.014-1.02-.253-.055-.014-.054-.01-1.09-.174-.05-.01-.052-.004-1.167-.095-.045-.005h-.047zm-5.734 1.714l-.46.305-.043.027-.038.031-.848.66-.03.022-.027.025-1.686 1.469-.01.01-1.065.906 1.714 2.016 1.077-.916.005-.006.007-.006 1.667-1.453.774-.602.426-.283zm-18.31 9.846l-.985.566-.038.022-.035.023-1.154.768-.023.015-.024.018-1.068.781-.006.004-.006.004-1.158.866 1.584 2.119 1.146-.856.012-.01 1.01-.738.015-.012 1.1-.73.95-.547zm-20.608.72l-2.383 1.15.363.753.033.07.043.067.785 1.228.038.057.043.055.453.57.033.039.033.037.498.535.037.041.041.037.545.494.041.04.047.035.592.451.048.037.051.031.051.033 1.053-1.68.4-.525-.047-.037-.007-.006-.497-.377-.449-.41-.437-.47-.373-.468-.705-1.1zm11.94 4.7l-.6.176-1.211.187-1.403.033-1.531-.14-.242 2.635 1.615.148.076.008.076-.002 1.553-.037.086-.002.084-.014 1.38-.213.087-.011.084-.026.691-.203z"/>
</svg>
