<svg xmlns="http://www.w3.org/2000/svg" width="300" height="300" viewBox="0 0 79.375 79.375">
  <path d="M21.125 78.177c-.353-.66-.642-3.442-.642-6.184v-4.986l-6.348-4.812c-3.146-4.053-9.583-9.338-10.224-21.082.32-13.132 1.138-15.19 4.959-22.773 2.467-4.894 9.596-11.847 14.959-14.437 19.993-9.66 41.504-.89 49.442 20.79 1.05 2.866 1.961 6.158 2.193 16.284-.856 10.767-3.406 16.315-9.14 20.302L59.2 66.676l-.31 5.575c-.172 3.067-.535 5.924-.81 6.35-.733 1.131-5.07.97-6.062-.226-.457-.55-.978-2.291-1.16-3.871-.27-2.326-.58-2.908-1.644-3.06-1.434-.205-2.07 1.183-2.085 4.555-.03 2.071-.965 3.381-2.456 3.366-1.958-.021-2.781-1.197-3.107-4.446-.302-3.006-.464-3.287-1.88-3.287-1.415 0-1.576.281-1.878 3.287-.327 3.25-1.15 4.427-3.108 4.446-1.491.017-2.446-1.295-2.455-3.366-.03-3.372-.65-4.76-2.086-4.555-1.063.152-1.376.734-1.643 3.06-.434 3.77-1.422 4.871-4.37 4.871-1.72 0-2.558-.333-3.021-1.198zm22.628-18.689c.231-.376-.21-2.034-.984-3.685-2.217-4.733-3.948-4.733-6.164 0-.774 1.65-1.217 3.31-.984 3.685.231.376 2.062.684 4.066.684s3.833-.308 4.066-.684zM27.39 52.722c3.082-.856 6.467-4.706 7.021-7.983.346-2.043.14-3.156-1.018-5.46-1.904-3.797-4.028-5.266-8.084-5.592-2.697-.217-3.66-.016-5.431 1.2-4.615 3.137-6.166 8.022-3.998 12.59 1.257 2.648 2.72 3.94 5.645 4.983 2.901 1.034 3.06 1.041 5.865.262zm32.203-.957c4.42-2.286 6.26-9.225 3.518-13.26-2.485-3.657-5.24-5.124-9.048-4.818-4.056.326-6.18 1.795-8.085 5.592-1.928 3.844-1.434 7.087 1.591 10.435 3.273 3.622 7.57 4.355 12.024 2.05z"/>
</svg>
