<svg xmlns="http://www.w3.org/2000/svg" width="300" height="300" viewBox="0 0 79.375 79.375">
  <path d="M55.344 0c-1.044 0-1.702.078-2.12.232-.417.153-.65.354-.97.816-4.88 7.015-6.943 9.282-10.899 11.956-2.295 1.551-6.65 4.935-9.588 7.458-2.975 2.554-6.966 5.815-8.923 7.289l-3.688 2.776H11.8c-2.585 0-4.469-.083-5.731.08-1.263.164-1.807.445-2.256 1.334-.449.89-.7 2.543-.788 5.235-.088 2.693-.044 6.417-.044 11.51 0 5.055-.036 8.76.05 11.448.086 2.688.325 4.355.747 5.262.422.907.902 1.177 2.043 1.348 1.141.17 2.868.097 5.235.097h6.686l3.393 3.749c3.81 4.21 7.676 6.757 11.878 7.886 2.206.593 6.64.867 15.96.895 5.553.018 8.84-.019 10.92-.15 2.08-.14 2.896-.373 3.71-.783 2.518-1.27 3.955-3.842 4.184-7.82.073-1.26.198-2.212.442-2.988.244-.776.633-1.387 1.17-1.814 1.606-1.276 2.818-4.161 2.818-7.133 0-1.15.073-2.016.305-2.758.234-.742.652-1.336 1.209-1.833 1.402-1.25 2.676-4.193 2.676-6.304 0-1.88-1.433-5.535-2.766-7.005-.948-1.045-1.377-2.869-1.59-5.38-.282-3.305-1.114-5.326-2.785-6.598-1.672-1.273-4.356-1.866-8.473-1.866a30.59 30.59 0 0 1-2.922-.12 7.858 7.858 0 0 1-.957-.142 1.799 1.799 0 0 1-.38-.126.822.822 0 0 1-.243-.166.77.77 0 0 1-.237-.543c0-.251.05-.295.085-.39a5.25 5.25 0 0 1 .133-.3 15.2 15.2 0 0 1 .423-.791c.348-.616.819-1.396 1.34-2.207 2.775-4.326 4.264-8.356 4.495-11.817.231-3.461-.756-6.343-2.982-8.568C58.742.963 58.214.545 57.66.312 57.106.079 56.454 0 55.344 0zm.14 3.516c.275.019.546.085.783.205.475.242.875.624 1.317 1.113 1.044 1.153 1.421 2.886 1.33 4.823-.094 1.937-.67 4.11-1.709 6.225-1.214 2.472-3.016 5.19-4.86 7.488-1.845 2.298-3.674 4.164-5.194 4.978-1.693.907-2.687 1.743-3.367 2.973-.679 1.231-1.053 2.935-1.285 5.56-.342 3.883-1.17 6.863-2.725 9.15-1.554 2.285-3.827 3.824-6.858 4.85-1.845.623-2.992 1.302-3.352 1.734-.179.216-.175.283-.156.371.018.088.13.291.472.546.543.404 1.04.537 2.06.354 1.018-.182 2.495-.745 4.626-1.75l3.644-1.722 1.509 1.814c.675.81 1.137 1.403 1.25 2.237.11.833-.102 1.693-.46 3.235-.597 2.573.089 5.321 1.877 7.447.63.748 1.063 1.44 1.274 2.319.212.88.22 1.891.154 3.418l-.186 4.217-5.376.153c-5.013.144-7.843-.547-11.547-2.837-2.383-1.472-6.15-5.35-7.925-8.09-.433-.67-.497-.814-1.358-1.02-.861-.207-2.507-.315-5.57-.456l-7.18-.33V34.85l7.308-.33c3.844-.173 5.618-.253 7.676-1.288 2.058-1.035 4.51-3.126 9.433-7.362 3.186-2.743 7.788-6.38 10.3-8.137 5.626-3.935 8.379-6.726 10.644-10.74 1.01-1.79 1.649-2.866 2.65-3.325.249-.114.527-.163.801-.15zm1.569 27.41c4.107 0 6.26.018 7.61.196.676.093 1.178.24 1.588.497.41.257.675.598.91.935.692.991 1.019 2.196 1.019 3.347a4.95 4.95 0 0 1-.385 1.866h.472l-1.192 1.192c-.1.098-.388.091-.507.172l.018.03h-.109c-.54.344-1.087.642-2.242.756-1.468.146-3.668.186-7.185.186-4.107 0-6.26-.019-7.61-.197-.676-.093-1.176-.242-1.586-.499-.41-.257-.675-.596-.91-.933-.608-.867-1.06-1.997-1.06-2.962 0-.965.452-2.093 1.06-2.96.236-.337.5-.679.91-.936.41-.256.912-.402 1.588-.496 1.35-.182 3.503-.196 7.61-.196zm1.137 11.972c5.215 0 8.122.025 9.902.178.89.078 1.508.185 2.008.37s.87.475 1.143.775c.8.885 1.124 2.154 1.137 3.394.019 1.24-.283 2.488-1.11 3.314l-.204.205h-.072c-.591.432-1.465.646-3.077.766-1.863.14-4.803.175-9.678.175-5.653 0-8.544 0-10.235-.183-.846-.089-1.415-.222-1.88-.48-.464-.257-.747-.627-.984-.965-.608-.867-1.056-1.995-1.056-2.96 0-.965.449-2.095 1.056-2.962.237-.339.521-.706.984-.963.464-.258 1.032-.391 1.874-.48 1.686-.183 4.565-.183 10.192-.183zm-1.167 11.97c4.839 0 7.458.037 9.119.65.83.308 1.444.85 1.746 1.549.301.7.338 1.476.338 2.4 0 1.54-.533 2.754-1.629 3.522-1.334.934-3.405 1.053-9.531 1.04-2.159 0-4.23-.076-5.846-.186-.808-.055-1.5-.12-2.04-.194a9.014 9.014 0 0 1-.704-.122c-.2-.043-.352-.075-.56-.196-1.038-.606-1.575-1.788-1.756-3.025-.182-1.237 0-2.584.693-3.647.24-.369.475-.73.873-1.023.397-.293.9-.465 1.568-.568 1.336-.199 3.478-.199 7.728-.199zm-3.217 12.044c.793 0 1.76.018 2.966.055 2.806.086 4.204.103 5.188.396.492.146.91.418 1.173.777.263.359.384.733.532 1.154.483 1.38.373 2.562-.357 3.865l-.2.358h-.049c-.148.242-.283.496-.49.701-.315.31-.731.538-1.228.677-.995.276-2.375.315-5 .398-2.477.076-3.866.102-4.834-.056-.485-.08-.886-.218-1.214-.458-.328-.24-.54-.555-.704-.862-.983-1.839-.967-4.235.177-5.8.411-.561 1.099-.96 2.12-1.096.51-.068 1.13-.101 1.923-.106z"/>
</svg>
