<svg xmlns="http://www.w3.org/2000/svg" height="300" width="300">
  <path d="M83.898 272.979c-18.068-.746-40.306-5.82-58.441-13.335C17.004 256.142.39 247.374.003 246.21c-.112-.334 3.233-.44 9.907-.314 21.906.413 41.605-4.09 60.364-13.798 5.814-3.009 18.598-11.26 18.598-12.003 0-.46-1.369-.736-6.217-1.254-9.44-1.008-21.166-5.867-29.345-12.163-3.95-3.04-9.136-8.366-12.318-12.652-3.035-4.088-8.204-14.005-8.439-16.19-.128-1.194-.043-1.234 2.105-.995 7.048.783 22.33-.201 23.126-1.49.13-.208-1.944-1.097-4.607-1.975-22.027-7.26-38.187-25.9-42.149-48.615-.408-2.34-.741-5.68-.741-7.422 0-3.622.29-3.801 3.505-2.16 6.638 3.386 22.098 6.937 22.68 5.21.093-.274-.558-.994-1.445-1.6-2.724-1.863-9.437-8.658-12.158-12.308-3.033-4.068-6.996-11.516-8.743-16.432-4.5-12.664-4.459-29.068.106-41.438 2.12-5.74 4.113-9.546 4.987-9.519.421.013 1.75 1.228 2.952 2.7 3.437 4.205 13.16 13.88 18.92 18.826 20.506 17.608 44.078 29.968 70.407 36.92 9.72 2.568 23.986 4.92 32.085 5.294 3.762.173 3.469 1.13 2.522-8.223-2.13-21.05 7.095-42.153 24.088-55.093 23.77-18.101 57.535-16.686 79.342 3.326 1.911 1.754 3.811 3.19 4.223 3.19 1.423 0 10.952-2.442 15.164-3.885 5.919-2.03 13.41-5.26 18.49-7.974 2.374-1.269 4.477-2.146 4.674-1.95.634.635-3.355 9.287-6.444 13.977-3.476 5.277-10.035 12.286-14.846 15.866-1.842 1.37-3.246 2.658-3.121 2.86.28.453 6.353-.505 12.646-1.993 4.673-1.105 11.898-3.422 16.807-5.388 1.425-.571 2.71-.847 2.855-.612.433.701-7.29 10.449-13.083 16.513-2.975 3.113-7.867 7.635-10.872 10.047l-5.462 4.387-.304 11.032c-.43 15.635-1.87 26.028-5.662 40.874-11.038 43.202-37.581 81.21-73.269 104.91-30.924 20.538-66.73 29.965-107.433 28.284z" fill="#010101"/>
</svg>
