<svg xmlns="http://www.w3.org/2000/svg" width="300" height="300" viewBox="0 0 79.375 79.375">
  <path d="M5.816 79.081c-1.382-.3-2.483-.922-3.586-2.025C.415 75.24-.178 73.203.148 69.903c1.077-10.917 9.351-19.18 20.247-20.22 2.336-.222 2.866-.128 3.642.647 1.034 1.035 1.034 2.376 0 3.41-.655.655-.645.652-3.362.92-7.993.785-14.271 6.763-15.472 14.732-.31 2.055-.285 2.758.125 3.571.256.506.535.786 1.04 1.04l.691.349h65.254l.692-.349c.505-.255.785-.534 1.04-1.04.41-.813.434-1.516.127-3.57-1.2-7.97-7.48-13.948-15.472-14.734-2.717-.267-2.707-.264-3.362-.92-1.034-1.033-1.034-2.374 0-3.409.776-.776 1.306-.87 3.642-.647 10.896 1.04 19.17 9.303 20.247 20.22.326 3.3-.267 5.337-2.082 7.153-1.125 1.125-2.203 1.724-3.658 2.032-1.484.315-66.22.308-67.668 0zm32.01-24.663C27.02 53.042 18.802 43.262 17.54 30.272c-.222-2.292-.204-4.107.068-6.598C18.926 11.558 26.597 2.025 36.45.257c1.674-.301 5.192-.259 6.801.078 9.963 2.108 17.395 11.652 18.583 23.866a29.464 29.464 0 0 1 0 6.067c-1.175 12.08-8.478 21.59-18.273 23.792-1.288.29-4.623.495-5.733.354zm5.136-5.309c7.295-1.895 12.753-9.228 13.85-18.606.287-2.456.287-4.073 0-6.53C55.342 11.413 45.998 2.92 36.36 5.385c-7.219 1.846-12.708 9.24-13.801 18.588-.41 3.501-.18 6.905.688 10.249 1.896 7.293 6.414 12.695 12.233 14.629 2.274.755 5.182.855 7.481.258z"/>
</svg>
