<?xml version="1.0" encoding="UTF-8" standalone="no"?>
<svg
   xmlns:dc="http://purl.org/dc/elements/1.1/"
   xmlns:cc="http://creativecommons.org/ns#"
   xmlns:rdf="http://www.w3.org/1999/02/22-rdf-syntax-ns#"
   xmlns:svg="http://www.w3.org/2000/svg"
   xmlns="http://www.w3.org/2000/svg"
   xmlns:sodipodi="http://sodipodi.sourceforge.net/DTD/sodipodi-0.dtd"
   xmlns:inkscape="http://www.inkscape.org/namespaces/inkscape"
   width="300"
   height="300"
   viewBox="0 0 79.375 79.375"
   version="1.1"
   id="svg81351"
   sodipodi:docname="safari-pinned-tab.svg"
   inkscape:version="0.92.2 (5c3e80d, 2017-08-06)">
  <metadata
     id="metadata81357">
    <rdf:RDF>
      <cc:Work
         rdf:about="">
        <dc:format>image/svg+xml</dc:format>
        <dc:type
           rdf:resource="http://purl.org/dc/dcmitype/StillImage" />
        <dc:title></dc:title>
      </cc:Work>
    </rdf:RDF>
  </metadata>
  <defs
     id="defs81355" />
  <sodipodi:namedview
     pagecolor="#ffffff"
     bordercolor="#666666"
     borderopacity="1"
     objecttolerance="10"
     gridtolerance="10"
     guidetolerance="10"
     inkscape:pageopacity="0"
     inkscape:pageshadow="2"
     inkscape:window-width="1498"
     inkscape:window-height="1003"
     id="namedview81353"
     showgrid="false"
     inkscape:pagecheckerboard="true"
     inkscape:zoom="1.4118565"
     inkscape:cx="158.93228"
     inkscape:cy="191.91723"
     inkscape:window-x="2824"
     inkscape:window-y="301"
     inkscape:window-maximized="0"
     inkscape:current-layer="svg81351" />
  <rect
     style="opacity:1;fill:#081a55;fill-opacity:1;stroke:none;stroke-width:0.11632921;stroke-linecap:round;stroke-miterlimit:4;stroke-dasharray:none;stroke-dashoffset:0;stroke-opacity:1"
     id="rect87949"
     width="74.978989"
     height="74.773003"
     x="2.1980062"
     y="2.3009992"
     rx="4.7910113"
     ry="4.7910113"
     inkscape:export-filename="/home/elhombretecla/projects/pufomap/pufomap-front/static/img/icons/favicon.ico.png"
     inkscape:export-xdpi="55.849998"
     inkscape:export-ydpi="55.849998" />
  <path
     d="m 39.529296,9.8018274 c -1.719505,0.00341 -3.595021,0.2908236 -5.157667,0.8156626 -1.059006,0.354414 -3.118512,1.380352 -3.990982,1.985739 -4.222454,2.933674 -6.787298,7.524107 -6.983158,12.497785 -0.08394,2.142598 0.33237,4.253825 1.410876,7.145103 1.520252,4.080009 4.679462,10.132193 8.856129,16.966123 2.109532,3.452577 4.89652,7.636027 5.194974,7.797972 0.349328,0.189927 0.874168,0.173816 1.194667,-0.03731 0.122942,-0.08139 0.340848,-0.342545 0.70035,-0.850426 l 0.50449,-0.131421 0.04664,-0.01187 0.04239,-0.01696 1.377809,-0.484141 0.04493,-0.01527 0.04324,-0.02035 1.142944,-0.514665 -0.922495,-2.045091 -0.211123,0.09497 c 0.262843,-0.409528 0.483292,-0.751224 0.796161,-1.242996 5.462906,-8.599222 9.227503,-15.774849 10.844413,-20.666281 0.632521,-1.914518 0.939454,-3.282152 1.023395,-4.558215 0.06783,-1.034417 -0.09073,-2.830231 -0.356959,-4.054573 C 54.106927,17.754955 50.91041,13.654596 46.615887,11.534042 44.670845,10.573392 43.29558,10.158777 41.180962,9.89763 A 13.368559,13.368559 0 0 0 39.528439,9.801815 Z m -0.08479,2.4563146 c 0.893668,0 1.787336,0.05596 2.407138,0.169577 a 13.726365,13.726365 0 0 1 9.000269,5.988591 c 1.248083,1.911975 1.955217,3.979111 2.171427,6.348094 0.117008,1.276911 0.07292,1.958609 -0.214514,3.320307 -0.980153,4.633677 -5.598567,13.698385 -12.037384,23.623694 -0.649478,1.002197 -1.231973,1.837361 -1.29726,1.858558 -0.18399,0.05936 -2.484295,-3.470382 -4.877866,-7.483408 -5.291634,-8.876479 -8.157475,-15.160983 -8.729796,-19.146876 -0.137357,-0.952172 -0.07377,-2.488534 0.150076,-3.64759 1.059004,-5.479863 5.490037,-9.847303 11.022468,-10.86137 0.618954,-0.113617 1.511774,-0.169577 2.405442,-0.169577 z m 0.286584,3.510232 c -1.524492,-0.02034 -3.108335,0.327283 -4.659112,1.07681 -1.478707,0.713918 -3.444946,2.630979 -4.124948,3.980808 -1.053917,2.091725 -1.280302,2.658958 -1.367633,6.280263 0.176359,3.238911 1.950977,4.695572 2.819208,5.813928 l 1.750877,1.326088 v 1.375265 c 0,0.756311 0.0797,1.523645 0.176359,1.705091 0.128031,0.239103 0.359503,0.330674 0.833468,0.330674 0.81312,0 1.085289,-0.30439 1.204841,-1.343893 0.07376,-0.640999 0.160249,-0.801248 0.453617,-0.842795 0.395113,-0.0568 0.566385,0.325587 0.574864,1.254866 0.0025,0.571472 0.266235,0.932671 0.677458,0.929279 0.539254,-0.0051 0.766486,-0.330675 0.856361,-1.226886 0.08394,-0.828381 0.127183,-0.906386 0.518056,-0.906386 0.390026,0 0.434964,0.07801 0.518904,0.907234 0.08988,0.895363 0.317108,1.220102 0.856361,1.226038 0.411223,0.0043 0.669827,-0.357807 0.678306,-0.928432 0.0034,-0.930126 0.178903,-1.31252 0.574864,-1.255713 0.293367,0.04155 0.378155,0.201796 0.452769,0.842795 0.05002,0.435812 0.193317,0.916561 0.319652,1.068331 0.273018,0.329827 1.470227,0.373916 1.672023,0.06189 0.07631,-0.117008 0.175512,-0.905538 0.222994,-1.750877 l 0.08564,-1.537211 1.964543,-1.488032 c 1.581301,-1.099704 2.284195,-2.630131 2.520755,-5.599415 -0.06443,-2.792076 -0.315412,-3.700157 -0.60454,-4.490384 -1.57367,-4.297067 -5.080511,-6.755078 -8.975682,-6.808494 z m -4.730334,9.269896 c 0.136508,-0.0016 0.292519,0.0059 0.479053,0.02035 1.118357,0.08988 1.704243,0.495162 2.22993,1.543145 0.318804,0.634215 0.374764,0.94115 0.279802,1.50499 -0.152619,0.903843 -1.086138,1.965392 -1.936564,2.201951 -0.773268,0.214514 -0.81651,0.211971 -1.616911,-0.07292 -0.806336,-0.288279 -1.209928,-0.64439 -1.556712,-1.373569 -0.597757,-1.2608 -0.169576,-2.607237 1.102247,-3.472077 0.366285,-0.251821 0.607932,-0.345936 1.019155,-0.351872 z m 8.601765,0.01022 c 0.951324,-0.02119 1.658457,0.394265 2.301152,1.339654 0.75631,1.112421 0.249277,3.026092 -0.969977,3.656068 -1.228581,0.635912 -2.413073,0.43242 -3.31522,-0.565537 -0.834316,-0.923344 -0.970825,-1.817859 -0.439203,-2.877712 0.525688,-1.047135 1.110726,-1.452423 2.229931,-1.542298 0.06529,-0.0051 0.129725,-0.0085 0.193317,-0.01022 z m -4.158863,5.129687 c 0.272171,0 0.545188,0.325587 0.850426,0.978457 0.213667,0.455313 0.334913,0.913169 0.271323,1.01661 -0.06443,0.103443 -0.568082,0.18823 -1.121749,0.18823 -0.552819,0 -1.056461,-0.08479 -1.1209,-0.18823 -0.06359,-0.103443 0.0585,-0.561297 0.271323,-1.01661 0.305237,-0.65287 0.577408,-0.978457 0.849577,-0.978457 z M 17.106203,42.148533 c -1.039504,0 -1.544841,0.943693 -1.916214,1.914519 -2.916715,7.613134 -5.9902878,15.682429 -9.0129886,23.596562 -0.6036921,1.578756 0.8767102,1.91367 1.9162144,1.91367 H 71.281637 c 1.039502,0 2.523297,-0.319652 1.914517,-1.91367 L 64.183166,44.063052 C 63.811794,43.092226 63.308152,42.148533 62.2678,42.148533 H 51.815108 l -1.412571,2.478361 h 11.30227 l 1.978109,5.189039 -1.495664,1.462596 1.201449,1.227733 1.352372,1.569431 0.02205,0.02544 0.353567,0.434964 0.278954,-0.226385 4.873626,12.786064 H 9.1030421 l 5.4484909,-14.292751 1.333719,-0.193317 -0.10174,-0.71646 -0.09327,-0.965738 -0.0016,-0.01781 -0.04494,-0.823294 -8.48e-4,-0.144988 2.025591,-5.314525 h 10.728254 l -1.458417,-2.478358 z m 37.795197,4.010483 -0.02628,2.243497 0.776661,0.01022 0.907234,0.07461 0.851273,0.135661 0.754616,0.18823 0.754615,0.262844 0.73257,-2.12225 -0.79701,-0.274714 -0.04748,-0.01696 -0.04748,-0.01187 -0.86484,-0.214514 -0.04664,-0.01187 -0.04578,-0.0085 -0.924192,-0.147533 -0.04239,-0.0085 -0.04409,-0.0034 -0.989478,-0.08055 -0.03815,-0.0043 h -0.03986 z m -4.861757,1.45327 -0.390025,0.258604 -0.03646,0.0229 -0.03222,0.02628 -0.719004,0.559601 -0.02543,0.01865 -0.0229,0.02119 -1.42953,1.24554 -0.0085,0.0085 -0.902995,0.76818 1.45327,1.709331 0.913169,-0.77666 0.0043,-0.0051 0.0059,-0.0051 1.413419,-1.231972 0.656261,-0.510425 0.361198,-0.239951 z m -15.524723,8.348249 -0.835164,0.479901 -0.03222,0.01865 -0.02968,0.0195 -0.978455,0.651174 -0.0195,0.01272 -0.02034,0.01527 -0.905538,0.662196 -0.0051,0.0034 -0.0051,0.0034 -0.981848,0.734265 1.343046,1.796663 0.971673,-0.725787 0.01022,-0.0085 0.856362,-0.625736 0.01272,-0.01022 0.93267,-0.618953 0.805488,-0.463792 z m -17.473156,0.610475 -2.020503,0.975064 0.30778,0.638456 0.02798,0.05935 0.03646,0.05681 0.665588,1.041199 0.03222,0.04833 0.03646,0.04664 0.38409,0.483293 0.02799,0.03306 0.02799,0.03137 0.422245,0.453617 0.03137,0.03477 0.03477,0.03137 0.462095,0.418853 0.03477,0.03391 0.03986,0.02968 0.501947,0.382394 0.0407,0.03137 0.04324,0.02628 0.04324,0.02798 0.89282,-1.424442 0.339152,-0.445138 -0.03986,-0.03137 -0.0059,-0.0051 -0.421398,-0.319651 -0.380699,-0.347633 -0.370525,-0.398504 -0.316259,-0.396809 -0.597757,-0.93267 z m 10.123713,3.985046 -0.508729,0.149227 -1.026785,0.158554 -1.18958,0.02799 -1.298107,-0.118703 -0.205187,2.234169 1.369329,0.125487 0.06443,0.0068 0.06444,-0.0016 1.316762,-0.03137 0.07292,-0.0016 0.07123,-0.01187 1.170077,-0.1806 0.07377,-0.0093 0.07123,-0.02205 0.585887,-0.17212 z"
     id="path81349"
     style="fill:#0de2b1;fill-opacity:1;stroke-width:0.84788221"
     inkscape:connector-curvature="0"
     inkscape:export-filename="/home/elhombretecla/projects/pufomap/pufomap-front/static/img/icons/favicon.ico.png"
     inkscape:export-xdpi="55.849998"
     inkscape:export-ydpi="55.849998" />
</svg>
